<?xml version="1.0" encoding="UTF-8"?>
<svg version="1.1" xmlns="http://www.w3.org/2000/svg" width="194" height="259">
<path d="M0 0 C64.02 0 128.04 0 194 0 C194 85.47 194 170.94 194 259 C129.98 259 65.96 259 0 259 C0 173.53 0 88.06 0 0 Z " fill="#FEFEFE" transform="translate(0,0)"/>
<path d="M0 0 C0.99 0 1.98 0 3 0 C5.5243261 3.78648916 5.58268106 7.62646449 5 12 C3.85094944 16.39862792 2.46549664 20.69767855 1 25 C-1.05039892 31.15119677 -1.26555712 39.19162785 1.4375 45.1875 C6.96736318 54.41691953 15.21423704 61.09427526 23.8046875 67.3046875 C33.65348428 74.97494859 40.26222318 86.76129831 42 99 C43.1583665 115.57793368 39.12612618 129.11390962 28.3125 141.6875 C20.7786867 149.66710107 12.38398887 153.76537088 2 157 C1.40058594 157.1959375 0.80117187 157.391875 0.18359375 157.59375 C-10.03680977 159.49522042 -23.88483432 159.11753545 -33.1875 154.375 C-33.785625 153.92125 -34.38375 153.4675 -35 153 C-33.84734639 146.72444143 -31.26659941 142.70680516 -26 139 C-19.732456 136.07741698 -14.47415007 135.62046526 -7.625 135.5625 C3.03632074 135.23934574 11.22414293 133.76969716 19.1796875 126.15234375 C25.90250681 118.20325911 27.80871718 109.62057966 28.67578125 99.56640625 C29 96 29 96 29.79296875 93.33984375 C30.26673664 90.81968404 30.26673664 90.81968404 28.28125 88.5078125 C27.5284375 87.68023437 26.775625 86.85265625 26 86 C24.83050555 84.29360127 23.66394803 82.5851868 22.5 80.875 C19.26096365 76.38548822 15.75331966 72.59748925 11.6875 68.875 C11.171875 68.40175293 10.65625 67.92850586 10.125 67.44091797 C7.75442144 65.33244078 6.04414424 64.01471475 3 63 C6.11627405 67.8868843 9.36928625 72.52889872 13.0625 77 C21.18491291 86.98963427 24.07015611 95.08381031 23 108 C20.73091729 117.03933494 16.14522303 122.93908975 8.35546875 127.921875 C0.52755831 131.50479918 -7.42810213 131.33147785 -15.8671875 131.30273438 C-23.95675453 131.47640237 -28.50838154 133.87417014 -34.4609375 139.203125 C-35.40839844 140.21632812 -35.40839844 140.21632812 -36.375 141.25 C-40.81136291 145.9514842 -40.81136291 145.9514842 -45.0625 146.125 C-48 146 -48 146 -49 145 C-49.28125 142.6171875 -49.28125 142.6171875 -49 140 C-47.53125 138.4453125 -47.53125 138.4453125 -45.5 137.125 C-42.42840584 135.03588411 -39.74774149 132.87887768 -37.0625 130.3125 C-29.94365943 124.07490855 -22.61824894 123.80598617 -13.4453125 123.30078125 C-6.64562372 122.70715763 0.30109067 121.23592754 5 116 C9.29236512 109.82376352 10.90967001 103.96129646 10.625 96.453125 C9.08341486 87.9358671 4.42743911 80.62168898 -1 74 C-9.20408027 62.19671032 -11.49949277 54.20779427 -11 40 C-11.99 40 -12.98 40 -14 40 C-17.6206448 48.82532169 -16.30289022 55.86446173 -12.76171875 64.51953125 C-10.16279893 69.6539826 -6.88163525 74.14445219 -3.40234375 78.7109375 C3.22445164 87.53781834 4.99071117 94.95081848 4 106 C1.87824602 110.47925841 -0.8550325 113.3009514 -5 116 C-11.33153284 118.23655163 -17.30688522 118.34850322 -23.97265625 118.390625 C-32.42131903 118.63472762 -37.15103919 121.89016907 -43.3125 127.6875 C-48.693004 132.72193789 -50.77327406 133.1165601 -58 133 C-58.625 130.625 -58.625 130.625 -59 128 C-57 126 -57 126 -53.625 124.6875 C-49.68525203 122.85347939 -48.62552973 121.34158329 -46 118 C-37.83475677 111.72319408 -29.719087 110.76181341 -19.62109375 110.44140625 C-14.99018188 109.87690459 -11.5975268 108.43777412 -8.125 105.3125 C-6.42541954 101.81891795 -6.80705492 98.85890158 -7 95 C-7.99 94.67 -8.98 94.34 -10 94 C-10.391875 94.9075 -10.78375 95.815 -11.1875 96.75 C-13.18291472 100.32798502 -14.5856166 101.77282808 -18 104 C-20.78433461 104.65447379 -23.37065835 105.13591419 -26.1875 105.5 C-35.60888873 106.95207808 -43.45707881 108.57290027 -50 116 C-55.94903796 121.86583463 -55.94903796 121.86583463 -59.9375 122.375 C-60.9584375 122.189375 -60.9584375 122.189375 -62 122 C-66.28503526 112.00158439 -66.78393351 99.71173161 -63.1171875 89.375 C-60.42301188 83.64752177 -56.98218215 78.30351951 -52.85546875 73.5078125 C-50.84747519 70.79385068 -50.27837105 68.98981908 -49.75 65.6875 C-49.60046875 64.80449219 -49.4509375 63.92148438 -49.296875 63.01171875 C-49.19890625 62.34785156 -49.1009375 61.68398437 -49 61 C-46.625 61.25 -46.625 61.25 -44 62 C-41.48479652 65.48140969 -41.48221463 69.11324321 -41.53125 73.28125 C-42.23615283 77.3696864 -44.37574022 80.19886811 -46.6640625 83.59375 C-48.6961781 87.25393482 -48.45510507 89.90405439 -48 94 C-45.760165 94.95020416 -45.760165 94.95020416 -43 95 C-39.91382062 92.47494414 -38.26710868 90.80132605 -37 87 C-36.9314505 85.10529184 -36.91519628 83.2083166 -36.9375 81.3125 C-36.94652344 80.31863281 -36.95554687 79.32476562 -36.96484375 78.30078125 C-36.97644531 77.54152344 -36.98804687 76.78226562 -37 76 C-34.25 76 -34.25 76 -31 77 C-28.15934121 80.52930335 -27.09935181 84.1767993 -26.5625 88.625 C-27.0399648 92.30829989 -28.1329709 94.81049195 -30 98 C-28.53815942 97.77139942 -27.08044581 97.51629608 -25.625 97.25 C-24.40683594 97.04117188 -24.40683594 97.04117188 -23.1640625 96.828125 C-20.87333396 96.18330238 -20.87333396 96.18330238 -19.71875 94.16796875 C-18.42041246 90.25178757 -18.83916044 86.85644295 -20 83 C-21.84652561 79.59134669 -23.83641539 76.43266334 -25.9921875 73.2109375 C-31.6449998 64.1708369 -32.98166484 55.50263105 -32 45 C-28.93565845 32.02161227 -19.22745631 23.16503007 -8.87109375 15.50390625 C-3.85287717 11.47047539 -2.02675021 5.87757562 0 0 Z " fill="#EA7C26" transform="translate(106,41)"/>
<path d="M0 0 C0.33 0 0.66 0 1 0 C1 1.98 1 3.96 1 6 C1.78375 6.144375 2.5675 6.28875 3.375 6.4375 C6 7 6 7 8 8 C8.85185473 10.4886646 9.47104109 13.00648108 10.12109375 15.5546875 C11.05255275 18.14621342 12.0716265 19.11956948 14 21 C14.1875 24.1875 14.1875 24.1875 14 27 C14.86625 27.0928125 14.86625 27.0928125 15.75 27.1875 C18.94710041 28.34200848 20.1436532 30.21547979 22 33 C22 33.99 22 34.98 22 36 C22.99 36 23.98 36 25 36 C25 36.99 25 37.98 25 39 C26.98 38.505 26.98 38.505 29 38 C29 38.66 29 39.32 29 40 C30.98 39.505 30.98 39.505 33 39 C32.67 41.31 32.34 43.62 32 46 C32.66 46 33.32 46 34 46 C34.33 44.68 34.66 43.36 35 42 C37.20840635 46.41681271 36.42161434 52.19242534 36 57 C33.87824602 61.47925841 31.1449675 64.3009514 27 67 C20.66846716 69.23655163 14.69311478 69.34850322 8.02734375 69.390625 C-0.42131903 69.63472762 -5.15103919 72.89016907 -11.3125 78.6875 C-16.693004 83.72193789 -18.77327406 84.1165601 -26 84 C-26.625 81.625 -26.625 81.625 -27 79 C-25 77 -25 77 -21.625 75.6875 C-17.68525203 73.85347939 -16.62552973 72.34158329 -14 69 C-5.83475677 62.72319408 2.280913 61.76181341 12.37890625 61.44140625 C17.00981812 60.87690459 20.4024732 59.43777412 23.875 56.3125 C25.57458046 52.81891795 25.19294508 49.85890158 25 46 C24.01 45.67 23.02 45.34 22 45 C21.608125 45.9075 21.21625 46.815 20.8125 47.75 C18.81708528 51.32798502 17.4143834 52.77282808 14 55 C11.21566539 55.65447379 8.62934165 56.13591419 5.8125 56.5 C-3.60888873 57.95207808 -11.45707881 59.57290027 -18 67 C-23.94903796 72.86583463 -23.94903796 72.86583463 -27.9375 73.375 C-28.9584375 73.189375 -28.9584375 73.189375 -30 73 C-34.28503526 63.00158439 -34.78393351 50.71173161 -31.1171875 40.375 C-28.42301188 34.64752177 -24.98218215 29.30351951 -20.85546875 24.5078125 C-18.84747519 21.79385068 -18.27837105 19.98981908 -17.75 16.6875 C-17.60046875 15.80449219 -17.4509375 14.92148438 -17.296875 14.01171875 C-17.19890625 13.34785156 -17.1009375 12.68398437 -17 12 C-14.625 12.25 -14.625 12.25 -12 13 C-9.48479652 16.48140969 -9.48221463 20.11324321 -9.53125 24.28125 C-10.23615283 28.3696864 -12.37574022 31.19886811 -14.6640625 34.59375 C-16.6961781 38.25393482 -16.45510507 40.90405439 -16 45 C-13.760165 45.95020416 -13.760165 45.95020416 -11 46 C-7.91382062 43.47494414 -6.26710868 41.80132605 -5 38 C-4.9314505 36.10529184 -4.91519628 34.2083166 -4.9375 32.3125 C-4.94652344 31.31863281 -4.95554687 30.32476562 -4.96484375 29.30078125 C-4.97644531 28.54152344 -4.98804687 27.78226563 -5 27 C-2.25 27 -2.25 27 1 28 C3.84065879 31.52930335 4.90064819 35.1767993 5.4375 39.625 C4.9600352 43.30829989 3.8670291 45.81049195 2 49 C3.46184058 48.77139942 4.91955419 48.51629608 6.375 48.25 C7.18710938 48.11078125 7.99921875 47.9715625 8.8359375 47.828125 C11.12666604 47.18330238 11.12666604 47.18330238 12.28125 45.16796875 C13.57958754 41.25178757 13.16083956 37.85644295 12 34 C10.15347439 30.59134669 8.16358461 27.43266334 6.0078125 24.2109375 C1.03580539 16.25959539 -0.18110812 9.23651419 0 0 Z " fill="#E10D23" transform="translate(74,90)"/>
<path d="M0 0 C4.63596072 4.11520897 4.81791414 9.58668298 5.26171875 15.46875 C5.71912269 30.7365782 1.2067439 43.18292532 -8.6875 54.6875 C-16.2213133 62.66710107 -24.61601113 66.76537088 -35 70 C-35.59941406 70.1959375 -36.19882813 70.391875 -36.81640625 70.59375 C-47.03680977 72.49522042 -60.88483432 72.11753545 -70.1875 67.375 C-70.785625 66.92125 -71.38375 66.4675 -72 66 C-70.84734639 59.72444143 -68.26659941 55.70680516 -63 52 C-56.732456 49.07741698 -51.47415007 48.62046526 -44.625 48.5625 C-33.96367926 48.23934574 -25.77585707 46.76969716 -17.8203125 39.15234375 C-11.06641378 31.16651071 -9.24141699 22.6543377 -8.421875 12.56640625 C-8.03359661 9.28401576 -7.5196883 6.91673509 -6 4 C-3.4375 2.25 -3.4375 2.25 -1 1 C-0.67 0.67 -0.34 0.34 0 0 Z " fill="#283610" transform="translate(143,128)"/>
<path d="M0 0 C0.33 0 0.66 0 1 0 C1 1.98 1 3.96 1 6 C1.78375 6.144375 2.5675 6.28875 3.375 6.4375 C6 7 6 7 8 8 C8.85185473 10.4886646 9.47104109 13.00648108 10.12109375 15.5546875 C11.05255275 18.14621342 12.0716265 19.11956948 14 21 C14.1875 24.1875 14.1875 24.1875 14 27 C14.86625 27.0928125 14.86625 27.0928125 15.75 27.1875 C18.94710041 28.34200848 20.1436532 30.21547979 22 33 C22 33.99 22 34.98 22 36 C22.99 36 23.98 36 25 36 C25 36.99 25 37.98 25 39 C26.98 38.505 26.98 38.505 29 38 C29 38.66 29 39.32 29 40 C30.98 39.505 30.98 39.505 33 39 C32.67 41.31 32.34 43.62 32 46 C32.66 46 33.32 46 34 46 C34.33 44.68 34.66 43.36 35 42 C37.20840635 46.41681271 36.42161434 52.19242534 36 57 C33.87824602 61.47925841 31.1449675 64.3009514 27 67 C20.66846716 69.23655163 14.69311478 69.34850322 8.02734375 69.390625 C-0.42131903 69.63472762 -5.15103919 72.89016907 -11.3125 78.6875 C-16.693004 83.72193789 -18.77327406 84.1165601 -26 84 C-26.625 81.625 -26.625 81.625 -27 79 C-25 77 -25 77 -21.625 75.6875 C-17.68525203 73.85347939 -16.62552973 72.34158329 -14 69 C-5.83475677 62.72319408 2.280913 61.76181341 12.37890625 61.44140625 C17.00981812 60.87690459 20.4024732 59.43777412 23.875 56.3125 C25.57458046 52.81891795 25.19294508 49.85890158 25 46 C24.01 45.67 23.02 45.34 22 45 C21.38125 46.3921875 21.38125 46.3921875 20.75 47.8125 C19.06558214 50.88054681 17.91545917 52.19040465 15 54 C14.67 53.34 14.34 52.68 14 52 C11.525 52.495 11.525 52.495 9 53 C8.67 51.35 8.34 49.7 8 48 C8.639375 47.75507813 9.27875 47.51015625 9.9375 47.2578125 C12.13938747 46.19817515 12.13938747 46.19817515 12.75 44.1171875 C13.57337502 36.7325428 11.37060303 32.74728135 7.5 26.62890625 C2.0161601 17.8410528 -0.50327544 10.40102578 0 0 Z " fill="#E81428" transform="translate(74,90)"/>
<path d="M0 0 C0 0.99 0 1.98 0 3 C0.5775 3.226875 1.155 3.45375 1.75 3.6875 C4.59739809 5.34848222 6.12067193 7.31524561 8 10 C8 10.66 8 11.32 8 12 C8.99 12.33 9.98 12.66 11 13 C11.62674429 22.15743041 10.37607357 29.83649715 4.75 37.3125 C-4.81537104 46.66047625 -15.06764134 47.34632956 -27.8671875 47.30273438 C-35.95675453 47.47640237 -40.50838154 49.87417014 -46.4609375 55.203125 C-47.09257813 55.87859375 -47.72421875 56.5540625 -48.375 57.25 C-52.81136291 61.9514842 -52.81136291 61.9514842 -57.0625 62.125 C-60 62 -60 62 -61 61 C-61.28125 58.6171875 -61.28125 58.6171875 -61 56 C-59.53125 54.4453125 -59.53125 54.4453125 -57.5 53.125 C-54.42840584 51.03588411 -51.74774149 48.87887768 -49.0625 46.3125 C-41.94365943 40.07490855 -34.61824894 39.80598617 -25.4453125 39.30078125 C-18.64562372 38.70715763 -11.69890933 37.23592754 -7 32 C0.14614551 23.14671973 -1.52010204 11.69950964 -2 1 C-1.34 0.67 -0.68 0.34 0 0 Z " fill="#D91929" transform="translate(118,125)"/>
<path d="M0 0 C2.11007147 1.74310252 2.95559826 2.86337925 3.8125 5.5 C4 8 4 8 2 11 C0 8 0 8 0 5 C-0.99 5 -1.98 5 -3 5 C-2.91621094 5.83402344 -2.83242187 6.66804687 -2.74609375 7.52734375 C-1.97473914 16.05130043 -2.11533268 23.65361613 -4 32 C-4.66 32 -5.32 32 -6 32 C-6.185625 33.299375 -6.37125 34.59875 -6.5625 35.9375 C-8.54370927 44.76288677 -15.7362893 51.93932114 -23 57 C-29.27042709 60.32014384 -35.1622905 63.13722491 -42.32421875 63.09765625 C-43.86625977 63.09282227 -43.86625977 63.09282227 -45.43945312 63.08789062 C-46.51130859 63.07951172 -47.58316406 63.07113281 -48.6875 63.0625 C-49.77095703 63.05798828 -50.85441406 63.05347656 -51.97070312 63.04882812 C-54.64719085 63.03703743 -57.32356777 63.02058063 -60 63 C-60 62.01 -60 61.02 -60 60 C-57 57.8125 -57 57.8125 -54 56 C-57.96 55.505 -57.96 55.505 -62 55 C-62.495 53.515 -62.495 53.515 -63 52 C-56.67142165 49.21926103 -51.48810694 48.62058338 -44.625 48.5625 C-33.96367926 48.23934574 -25.77585707 46.76969716 -17.8203125 39.15234375 C-11.06641378 31.16651071 -9.24141699 22.6543377 -8.421875 12.56640625 C-8.03359661 9.28401576 -7.5196883 6.91673509 -6 4 C-3.4375 2.25 -3.4375 2.25 -1 1 C-0.67 0.67 -0.34 0.34 0 0 Z " fill="#375E2C" transform="translate(143,128)"/>
<path d="M0 0 C1.32 0.33 2.64 0.66 4 1 C3.91298828 2.41539063 3.91298828 2.41539063 3.82421875 3.859375 C3.35724079 17.14823339 6.95646433 25.82852952 15.07421875 36.46875 C22.35540955 46.039159 26.52049492 54.6898392 25 67 C23.06914281 73.52558218 19.76649699 78.14277564 14.08203125 81.88671875 C8.53493265 84.85280337 3.22369638 85.08013737 -2.9375 85.4375 C-14.20206638 86.2044492 -19.70497915 89.04329174 -27.71484375 96.91796875 C-30 99 -30 99 -32 99 C-32 97.68 -32 96.36 -32 95 C-33.32 94.34 -34.64 93.68 -36 93 C-20.39394939 78.97115663 -20.39394939 78.97115663 -12.83203125 78.7890625 C-11.61483398 78.74652344 -11.61483398 78.74652344 -10.37304688 78.703125 C-8.68575145 78.65164383 -6.99822438 78.60720163 -5.31054688 78.5703125 C2.4984484 78.27493679 9.20546028 76.62411208 15 71 C18.26763239 65.90937269 17.44927438 59.80491028 17 54 C16.0063988 50.26490162 16.0063988 50.26490162 14 47 C13.57460937 46.24460938 13.14921875 45.48921875 12.7109375 44.7109375 C10.15848719 40.30215969 7.40359967 36.15695879 4.375 32.0625 C-0.85372399 24.6657685 -4.5008532 16.19488224 -3 7 C-2.18954129 4.49452477 -1.20383506 2.35751033 0 0 Z " fill="#F6F3EE" transform="translate(92,80)"/>
<path d="M0 0 C4.95798144 1.51260451 8.10794231 4.40712797 11.8125 7.875 C12.42834961 8.44710205 13.04419922 9.0192041 13.67871094 9.60864258 C18.47322601 14.200759 22.08635201 18.95694732 25.546875 24.63671875 C26.91996084 27.07461381 26.91996084 27.07461381 29 29 C29.31444216 42.17709185 25.60038357 56.2049467 16.625 66 C10.79586496 71.29921368 4.13948492 74.04044598 -3.703125 74.2109375 C-4.60160156 74.23929687 -5.50007813 74.26765625 -6.42578125 74.296875 C-8.29277931 74.34852087 -10.15999346 74.3929183 -12.02734375 74.4296875 C-19.60202907 74.68902052 -26.24738493 75.79442337 -32 81.1875 C-32.5775 81.71730469 -33.155 82.24710937 -33.75 82.79296875 C-34.1625 83.19128906 -34.575 83.58960938 -35 84 C-36.32 82.35 -37.64 80.7 -39 79 C-37.96861354 77.88622469 -36.92425992 76.78445355 -35.875 75.6875 C-35.29492188 75.07261719 -34.71484375 74.45773438 -34.1171875 73.82421875 C-28.18912932 68.71646383 -22.7347242 68.57080145 -15.25 68.5 C-5.51448875 68.40638931 4.32831802 67.62554353 12 61 C18.97883964 52.20934622 21.05260748 44.17079687 20 33 C18.24607655 25.89461694 14.52898612 20.60684526 10 15 C8.38690529 12.90190505 6.7831168 10.79872127 5.1875 8.6875 C4.41792969 7.68074219 3.64835937 6.67398438 2.85546875 5.63671875 C1 3 1 3 0 0 Z " fill="#F6F3EF" transform="translate(108,103)"/>
<path d="M0 0 C1.6266848 0.28211877 3.25132896 0.57602375 4.875 0.875 C5.77992187 1.03742188 6.68484375 1.19984375 7.6171875 1.3671875 C10 2 10 2 12 4 C13.32 4 14.64 4 16 4 C19.23586501 6.02166797 22.06852441 8.56293 25 11 C25.60199219 11.4434375 26.20398438 11.886875 26.82421875 12.34375 C32.94953192 17.02697313 36.82854998 23.62458659 41 30 C39.84826645 32.46800047 38.95216435 34.04783565 37 36 C34.6171875 35.94140625 34.6171875 35.94140625 32 35 C30.0078125 32.77734375 30.0078125 32.77734375 28.125 29.9375 C22.00322625 21.09747596 15.59287827 14.50084956 7 8 C7.56899942 12.00165167 9.59303525 14.17583488 12.1875 17.1875 C18.14219691 24.3066289 23.32202318 31.02090125 26 40 C25.67 40.66 25.34 41.32 25 42 C22.95631248 39.95631248 20.92041703 37.91559382 18.9375 35.8125 C17.03460878 33.77977645 17.03460878 33.77977645 14 33 C14.33 32.01 14.66 31.02 15 30 C14.34 30 13.68 30 13 30 C13 31.98 13 33.96 13 36 C10.26365042 33.26365042 9.0460721 30.08533439 7.4140625 26.60546875 C5.87551802 23.77063679 4.04191876 21.49268196 2 19 C0.72135994 17.1444126 -0.52904677 15.26904282 -1.75 13.375 C-2.67039062 11.96347656 -2.67039062 11.96347656 -3.609375 10.5234375 C-5 8 -5 8 -5 5 C0.75 4.875 0.75 4.875 3 6 C2.67 5.34 2.34 4.68 2 4 C1.01 3.67 0.02 3.34 -1 3 C-0.67 2.01 -0.34 1.02 0 0 Z " fill="#F06826" transform="translate(103,96)"/>
<path d="M0 0 C0.33 0 0.66 0 1 0 C1 3.3 1 6.6 1 10 C0.01 9.67 -0.98 9.34 -2 9 C-2 9.66 -2 10.32 -2 11 C-1.34 11.33 -0.68 11.66 0 12 C-0.495 12.9075 -0.99 13.815 -1.5 14.75 C-3.27937212 18.00873038 -3.27937212 18.00873038 -3 22 C-3.185625 23.093125 -3.37125 24.18625 -3.5625 25.3125 C-4.0149415 29.12593548 -3.69081078 32.23891908 -3 36 C-1.35 36 0.3 36 2 36 C1.79375 37.11375 1.5875 38.2275 1.375 39.375 C1.25125 40.57125 1.1275 41.7675 1 43 C1.66 43.66 2.32 44.32 3 45 C2.0925 45.7425 1.185 46.485 0.25 47.25 C-1.71692263 48.86683804 -3.35717517 50.40046913 -5.0625 52.3125 C-7 54 -7 54 -9.75 54.25 C-10.4925 54.1675 -11.235 54.085 -12 54 C-16.28503526 44.00158439 -16.78393351 31.71173161 -13.1171875 21.375 C-10.39893545 15.5963383 -6.88118723 10.29620502 -2.83984375 5.36328125 C-0.83408579 3.05767663 -0.83408579 3.05767663 0 0 Z " fill="#D60D25" transform="translate(56,109)"/>
<path d="M0 0 C2.97 0.495 2.97 0.495 6 1 C7.125 5.75 7.125 5.75 6 8 C5.92883618 10.37402501 5.91590915 12.75000677 5.9375 15.125 C5.94652344 16.40632813 5.95554687 17.68765625 5.96484375 19.0078125 C5.97644531 19.99523437 5.98804687 20.98265625 6 22 C7.32 22.33 8.64 22.66 10 23 C10 23.66 10 24.32 10 25 C10.99 24.67 11.98 24.34 13 24 C13.51046875 25.10794922 13.51046875 25.10794922 14.03125 26.23828125 C17.19492827 32.86012911 20.76663021 38.66197146 25.16015625 44.53125 C31.10818415 52.51246791 31.10818415 52.51246791 30.75 57.4375 C30.5025 58.283125 30.255 59.12875 30 60 C29.34 60 28.68 60 28 60 C28 58.02 28 56.04 28 54 C27.01 54 26.02 54 25 54 C25 53.34 25 52.68 25 52 C23.02 52.495 23.02 52.495 21 53 C21 52.01 21 51.02 21 50 C20.01 50 19.02 50 18 50 C16.4375 47.6875 16.4375 47.6875 15 45 C13.27773504 41.75150023 13.27773504 41.75150023 10 41 C9.2986716 38.67684969 8.63514826 36.34210921 8 34 C7.484375 33.360625 6.96875 32.72125 6.4375 32.0625 C4.22787492 28.89216836 4.31828742 25.81944901 4 22 C1.69 21.34 -0.62 20.68 -3 20 C-4.52011174 12.23421176 -3.50088047 7.0618619 0 0 Z " fill="#F15418" transform="translate(78,76)"/>
<path d="M0 0 C1.32 0.66 2.64 1.32 4 2 C4.66964286 9.76785714 4.66964286 9.76785714 1.8125 13.375 C-2.92475111 17.79643437 -6.88339527 18.22134984 -13.25 18.4375 C-21.07305999 18.82041369 -27.86281433 19.84476404 -34 25 C-34.66 25 -35.32 25 -36 25 C-36.226875 25.5775 -36.45375 26.155 -36.6875 26.75 C-38.88832892 30.52284957 -41.59655872 32.62574899 -45.8125 33.75 C-46.534375 33.8325 -47.25625 33.915 -48 34 C-48.495 32.515 -48.495 32.515 -49 31 C-49.99 31 -50.98 31 -52 31 C-52.66 31.66 -53.32 32.32 -54 33 C-54.66 33 -55.32 33 -56 33 C-56 32.34 -56 31.68 -56 31 C-55.34 31 -54.68 31 -54 31 C-54 29.02 -54 27.04 -54 25 C-53.34 25.99 -52.68 26.98 -52 28 C-47.32834036 27.93608666 -47.32834036 27.93608666 -43.48046875 25.55078125 C-42.51008928 24.31842606 -41.54414619 23.08256818 -40.58203125 21.84375 C-33.29728243 13.3538699 -21.45682822 11.83281858 -10.98046875 10.72265625 C-7.41869818 9.85905526 -5.62853463 8.52247095 -3 6 C-1.19020859 2.88337092 -1.19020859 2.88337092 0 0 Z " fill="#F4F2F0" transform="translate(96,134)"/>
<path d="M0 0 C1.51303711 0.02030273 1.51303711 0.02030273 3.05664062 0.04101562 C5.51750621 0.07600424 7.97720335 0.12508842 10.4375 0.1875 C11.5625 4.9375 11.5625 4.9375 10.4375 7.1875 C9.50067383 7.19366333 9.50067383 7.19366333 8.54492188 7.19995117 C5.67486392 7.23314485 2.80685713 7.30381366 -0.0625 7.375 C-1.04476562 7.38080078 -2.02703125 7.38660156 -3.0390625 7.39257812 C-11.29697839 7.6403156 -15.94502721 9.94900055 -22.0234375 15.390625 C-22.65507813 16.06609375 -23.28671875 16.7415625 -23.9375 17.4375 C-28.37386291 22.1389842 -28.37386291 22.1389842 -32.625 22.3125 C-35.5625 22.1875 -35.5625 22.1875 -36.5625 21.1875 C-36.84375 18.8046875 -36.84375 18.8046875 -36.5625 16.1875 C-35.09375 14.6328125 -35.09375 14.6328125 -33.0625 13.3125 C-29.31549627 10.76401065 -26.12666515 7.98798255 -22.91015625 4.80078125 C-15.85553014 -0.0470733 -8.30069015 -0.2142468 0 0 Z " fill="#265A25" transform="translate(93.5625,164.8125)"/>
<path d="M0 0 C0.81017578 -0.00773438 1.62035156 -0.01546875 2.45507812 -0.0234375 C8.43397556 -0.00352444 8.43397556 -0.00352444 10.6875 2.25 C10.3125 4.875 10.3125 4.875 9.6875 7.25 C7.75197266 7.28867188 7.75197266 7.28867188 5.77734375 7.328125 C4.05986339 7.38443583 2.34241678 7.44178248 0.625 7.5 C-0.64633789 7.52126953 -0.64633789 7.52126953 -1.94335938 7.54296875 C-10.55510538 7.8754686 -15.33331867 11.01764431 -21.625 16.9375 C-27.005504 21.97193789 -29.08577406 22.3665601 -36.3125 22.25 C-36.9375 19.875 -36.9375 19.875 -37.3125 17.25 C-35.3125 15.25 -35.3125 15.25 -31.9375 13.9375 C-27.99775203 12.10347939 -26.93802973 10.59158329 -24.3125 7.25 C-16.8013568 1.47601547 -9.31340759 -0.09108467 0 0 Z " fill="#365F23" transform="translate(84.3125,151.75)"/>
<path d="M0 0 C0.99 0 1.98 0 3 0 C5.52512685 3.78769027 5.57873158 7.62506483 5 12 C3.86051752 16.40205733 2.46309525 20.69615046 1 25 C0.62617187 26.12148437 0.25234375 27.24296875 -0.1328125 28.3984375 C-0.41898438 29.25695312 -0.70515625 30.11546875 -1 31 C-4.02419525 30.41196203 -7.01758453 29.77321882 -10 29 C-10 28.34 -10 27.68 -10 27 C-12.64 26.67 -15.28 26.34 -18 26 C-18 25.01 -18 24.02 -18 23 C-15.734375 20.94921875 -15.734375 20.94921875 -12.75 18.6875 C-5.85566576 13.20738817 -2.82400174 8.18960506 0 0 Z " fill="#DB8B16" transform="translate(106,41)"/>
<path d="M0 0 C1.65 0.33 3.3 0.66 5 1 C5.33 1.99 5.66 2.98 6 4 C4.35 4 2.7 4 1 4 C4.11627405 8.8868843 7.36928625 13.52889872 11.0625 18 C15.95404111 24.03477486 20.38748816 30.03734604 21 38 C18 37 18 37 16.125 34.0625 C13.87590294 30.82115423 12.71514168 30.0319838 9 29 C9.33 28.01 9.66 27.02 10 26 C9.34 26 8.68 26 8 26 C8 27.98 8 29.96 8 32 C5.26365042 29.26365042 4.0460721 26.08533439 2.4140625 22.60546875 C0.87605157 19.77161988 -0.96444955 17.49642979 -3 15 C-4.2753992 13.07912438 -5.52584841 11.14143427 -6.75 9.1875 C-7.36359375 8.21167969 -7.9771875 7.23585938 -8.609375 6.23046875 C-9.06828125 5.49441406 -9.5271875 4.75835937 -10 4 C-6.93109813 2.46554906 -4.29905734 3.45015711 -1 4 C-0.67 2.68 -0.34 1.36 0 0 Z " fill="#EF602C" transform="translate(108,100)"/>
<path d="M0 0 C3.3 0 6.6 0 10 0 C10.515625 1.155 11.03125 2.31 11.5625 3.5 C13.96115351 8.34926341 17.30207267 12.09432394 21 16 C20.01 16.99 19.02 17.98 18 19 C17.67 18.34 17.34 17.68 17 17 C14.97511372 16.71073053 12.94755984 16.42727846 10.91015625 16.24609375 C9 16 9 16 7 15 C6.67 15.66 6.34 16.32 6 17 C7.32 17.33 8.64 17.66 10 18 C10 18.66 10 19.32 10 20 C7.03 20 4.06 20 1 20 C-1.68159945 13.79880128 -2.14288655 6.42865964 0 0 Z " fill="#F26C2A" transform="translate(96,82)"/>
<path d="M0 0 C0.495 0.99 0.495 0.99 1 2 C-7.02153828 13.05468244 -14.92503313 19.64167771 -28 24 C-29.77313851 24.08209792 -31.54920775 24.10746294 -33.32421875 24.09765625 C-34.35224609 24.09443359 -35.38027344 24.09121094 -36.43945312 24.08789062 C-37.51130859 24.07951172 -38.58316406 24.07113281 -39.6875 24.0625 C-40.77095703 24.05798828 -41.85441406 24.05347656 -42.97070312 24.04882812 C-45.64719085 24.03703743 -48.32356777 24.02058063 -51 24 C-51 23.01 -51 22.02 -51 21 C-48.22069165 18.29913827 -46.22519746 17.63242026 -42.40234375 17.62890625 C-41.08375366 17.60703247 -41.08375366 17.60703247 -39.73852539 17.5847168 C-38.81418701 17.57738525 -37.88984863 17.57005371 -36.9375 17.5625 C-26.20634633 17.26677757 -17.73319423 15.65386227 -9 9 C-8.13375 8.360625 -7.2675 7.72125 -6.375 7.0625 C-3.89413836 4.90806753 -1.96802541 2.62403389 0 0 Z " fill="#F8FAF7" transform="translate(134,167)"/>
<path d="M0 0 C0.66 0.99 1.32 1.98 2 3 C4.58380177 3.25030977 4.58380177 3.25030977 7 3 C7.33 4.65 7.66 6.3 8 8 C7.01 8 6.02 8 5 8 C5.33 8.99 5.66 9.98 6 11 C6.44649878 17.92073103 5.44595305 20.90179281 1.125 26.375 C-1 28 -1 28 -3.6875 27.8125 C-6 27 -6 27 -7 26 C-7.85850797 19.25458022 -6.07679182 16.06172357 -2.40234375 10.4765625 C-0.38810983 6.91939174 -0.14988434 4.04687727 0 0 Z " fill="#F8F5F1" transform="translate(64,109)"/>
<path d="M0 0 C0 0.99 0 1.98 0 3 C0.5775 3.226875 1.155 3.45375 1.75 3.6875 C4.59739809 5.34848222 6.12067193 7.31524561 8 10 C8 10.66 8 11.32 8 12 C8.99 12.33 9.98 12.66 11 13 C11.33278764 19.81598387 11.24201565 24.92122066 8 31 C7.34 30.67 6.68 30.34 6 30 C6 29.34 6 28.68 6 28 C5.34 27.34 4.68 26.68 4 26 C5.65 25.67 7.3 25.34 9 25 C8.67 24.34 8.34 23.68 8 23 C6.68 23 5.36 23 4 23 C3.67 23.99 3.34 24.98 3 26 C2.34 26 1.68 26 1 26 C1 25.01 1 24.02 1 23 C0.34 22.67 -0.32 22.34 -1 22 C-1.33 15.07 -1.66 8.14 -2 1 C-1.34 0.67 -0.68 0.34 0 0 Z " fill="#EF1F1A" transform="translate(118,125)"/>
<path d="M0 0 C2.11007147 1.74310252 2.95559826 2.86337925 3.8125 5.5 C4 8 4 8 2 11 C0 8 0 8 0 5 C-0.99 5 -1.98 5 -3 5 C-2.91621094 5.83402344 -2.83242187 6.66804687 -2.74609375 7.52734375 C-1.97473914 16.05130043 -2.11533268 23.65361613 -4 32 C-4.66 32 -5.32 32 -6 32 C-6.495 34.475 -6.495 34.475 -7 37 C-8.32 37 -9.64 37 -11 37 C-10.50845379 30.1700948 -9.86461639 23.36243779 -9.0625 16.5625 C-8.98789551 15.88896484 -8.91329102 15.21542969 -8.83642578 14.52148438 C-8.37426463 10.73724464 -7.74404658 7.40711958 -6 4 C-3.4375 2.25 -3.4375 2.25 -1 1 C-0.67 0.67 -0.34 0.34 0 0 Z " fill="#3F6916" transform="translate(143,128)"/>
<path d="M0 0 C0.66 0 1.32 0 2 0 C2 1.32 2 2.64 2 4 C3.03447266 4.18175781 3.03447266 4.18175781 4.08984375 4.3671875 C10.09799013 5.43859906 16.05175157 6.63482823 22 8 C22 8.99 22 9.98 22 11 C20.58297487 10.85769192 19.1663904 10.71099254 17.75 10.5625 C16.56664062 10.44068359 16.56664062 10.44068359 15.359375 10.31640625 C13.17635361 10.02365007 11.1226818 9.57935581 9 9 C7.19320413 13.62369023 6.78160918 17.42528653 6.875 22.375 C6.90207031 24.24285156 6.90207031 24.24285156 6.9296875 26.1484375 C6.95289062 27.08945313 6.97609375 28.03046875 7 29 C6.34 29 5.68 29 5 29 C5 28.34 5 27.68 5 27 C3.35 26.67 1.7 26.34 0 26 C-0.18451025 11.21867882 -0.18451025 11.21867882 1 5 C0.34 5 -0.32 5 -1 5 C-0.67 3.35 -0.34 1.7 0 0 Z " fill="#E8730D" transform="translate(83,72)"/>
<path d="M0 0 C2.75 0 2.75 0 6 1 C8.84065879 4.52930335 9.90064819 8.1767993 10.4375 12.625 C9.9600352 16.30829989 8.8670291 18.81049195 7 22 C8.32 22.33 9.64 22.66 11 23 C10.05125 22.979375 9.1025 22.95875 8.125 22.9375 C5.09333717 22.77448174 5.09333717 22.77448174 3 24 C3 23.34 3 22.68 3 22 C2.34 21.67 1.68 21.34 1 21 C1.66 21 2.32 21 3 21 C2.67 20.34 2.34 19.68 2 19 C-0.31 19.33 -2.62 19.66 -5 20 C-3.92902493 17.77566716 -2.91018254 15.88600091 -1.375 13.9375 C0.74139992 9.41610017 0.23231745 4.91308393 0 0 Z " fill="#EF4B14" transform="translate(69,117)"/>
<path d="M0 0 C4.08580261 3.64409422 6.41811657 6.72705523 8 12 C8.17998919 15.1762799 7.98703899 17.96621757 7 21 C4.16907118 23.66916146 2.55676374 23.96848507 -1.3125 24.1875 C-2.199375 24.125625 -3.08625 24.06375 -4 24 C-3.505 22.7315625 -3.505 22.7315625 -3 21.4375 C-1.5055277 16.30025147 -1.27028743 12.6114486 -3.5 7.6875 C-3.995 6.800625 -4.49 5.91375 -5 5 C-5 4.34 -5 3.68 -5 3 C-5.99 2.67 -6.98 2.34 -8 2 C-6.68 2 -5.36 2 -4 2 C-4 2.66 -4 3.32 -4 4 C-2.68 3.67 -1.36 3.34 0 3 C0 2.01 0 1.02 0 0 Z " fill="#F8F5F0" transform="translate(80,115)"/>
<path d="M0 0 C0.99 0 1.98 0 3 0 C3.185625 0.9590625 3.185625 0.9590625 3.375 1.9375 C3.684375 2.9584375 3.684375 2.9584375 4 4 C4.66 4.33 5.32 4.66 6 5 C6 5.66 6 6.32 6 7 C6.86625 7.2475 7.7325 7.495 8.625 7.75 C15.16509004 10.17225557 18.79283897 13.46362161 22.4375 19.375 C23.13746094 20.47585937 23.83742188 21.57671875 24.55859375 22.7109375 C26.18265579 26.4167918 26.07266106 28.16161286 25 32 C24.34 32 23.68 32 23 32 C23 30.02 23 28.04 23 26 C22.01 26 21.02 26 20 26 C20 25.34 20 24.68 20 24 C18.68 24.33 17.36 24.66 16 25 C16 24.01 16 23.02 16 22 C15.01 22 14.02 22 13 22 C11.4375 19.6875 11.4375 19.6875 10 17 C8.27773504 13.75150023 8.27773504 13.75150023 5 13 C4.2986716 10.67684969 3.63514826 8.34210921 3 6 C2.04175747 4.63634717 1.05278825 3.29205831 0 2 C0 1.34 0 0.68 0 0 Z " fill="#F3431F" transform="translate(83,104)"/>
<path d="M0 0 C0.92683594 0.01353516 1.85367188 0.02707031 2.80859375 0.04101562 C5.08133998 0.07616119 7.35285847 0.12535868 9.625 0.1875 C9.00625 0.455625 8.3875 0.72375 7.75 1 C5.3254767 2.14306848 5.3254767 2.14306848 3.625 5.1875 C1.015625 5.77734375 1.015625 5.77734375 -2.125 6.125 C-7.19349159 6.85772101 -10.35909709 7.85723905 -14.375 11.1875 C-15.798125 12.30125 -15.798125 12.30125 -17.25 13.4375 C-17.95125 14.015 -18.6525 14.5925 -19.375 15.1875 C-20.695 13.5375 -22.015 11.8875 -23.375 10.1875 C-22.34361354 9.07372469 -21.29925992 7.97195355 -20.25 6.875 C-19.66992188 6.26011719 -19.08984375 5.64523438 -18.4921875 5.01171875 C-12.60622088 -0.05976909 -7.42165308 -0.20645112 0 0 Z " fill="#EEF2EC" transform="translate(92.375,171.8125)"/>
<path d="M0 0 C0.99 0 1.98 0 3 0 C2.67 1.093125 2.34 2.18625 2 3.3125 C0.86913351 6.84578884 0.86913351 6.84578884 1 10 C0.34 10 -0.32 10 -1 10 C-2.09658936 13.28976808 -1.79953138 14.71303767 -1 18 C-0.01 18 0.98 18 2 18 C2 18.66 2 19.32 2 20 C2.598125 19.79375 3.19625 19.5875 3.8125 19.375 C6 19 6 19 9 21 C2.92560175 26.88183807 2.92560175 26.88183807 -0.9375 27.375 C-1.618125 27.25125 -2.29875 27.1275 -3 27 C-6.58231402 18.64126728 -6.29551415 10.92014943 -6 2 C-4 4 -4 4 -4 8 C-3.01 8 -2.02 8 -1 8 C-0.67 5.36 -0.34 2.72 0 0 Z " fill="#C9192D" transform="translate(47,136)"/>
<path d="M0 0 C1.60546875 2.06640625 1.60546875 2.06640625 3.1875 4.5625 C3.71730469 5.38878906 4.24710938 6.21507813 4.79296875 7.06640625 C5.19128906 7.70449219 5.58960938 8.34257813 6 9 C4.84826645 11.46800047 3.95216435 13.04783565 2 15 C-0.375 15 -0.375 15 -3 14 C-5.6948442 10.86815404 -6.91493652 8.88466018 -7.3125 4.75 C-7 2 -7 2 -6 0 C-3 -1 -3 -1 0 0 Z " fill="#D34810" transform="translate(138,117)"/>
<path d="M0 0 C1.23363281 0.0918457 1.23363281 0.0918457 2.4921875 0.18554688 C4.49605377 0.33700188 6.49827296 0.50999643 8.5 0.6875 C8.5 1.6775 8.5 2.6675 8.5 3.6875 C9.16 4.3475 9.82 5.0075 10.5 5.6875 C9.34242187 5.67589844 8.18484375 5.66429687 6.9921875 5.65234375 C5.45312662 5.64295923 3.91406399 5.63385974 2.375 5.625 C1.61445312 5.61662109 0.85390625 5.60824219 0.0703125 5.59960938 C-4.24900133 5.58099164 -8.23752706 5.89672448 -12.5 6.6875 C-14.8125 6.4375 -14.8125 6.4375 -16.5 5.6875 C-16.83 4.6975 -17.16 3.7075 -17.5 2.6875 C-11.28076462 -0.08690661 -6.73491879 -0.61974416 0 0 Z " fill="#325526" transform="translate(97.5,177.3125)"/>
<path d="M0 0 C0.82371094 -0.01224609 1.64742187 -0.02449219 2.49609375 -0.03710938 C4.62370714 -0.04233265 6.75091677 0.0648768 8.875 0.1875 C9.535 0.8475 10.195 1.5075 10.875 2.1875 C10.5 4.8125 10.5 4.8125 9.875 7.1875 C-6.03012962 6.33863072 -6.03012962 6.33863072 -12.125 4.1875 C-12.455 3.1975 -12.785 2.2075 -13.125 1.1875 C-8.72883049 -0.0536039 -4.53901425 0.00358532 0 0 Z " fill="#3C6326" transform="translate(84.125,151.8125)"/>
<path d="M0 0 C3.3 0 6.6 0 10 0 C10.7713167 5.05640946 11.02961758 7.85191212 10 13 C6.37 12.34 2.74 11.68 -1 11 C-1.125 3.375 -1.125 3.375 0 0 Z " fill="#ED7314" transform="translate(96,82)"/>
<path d="M0 0 C0.4375 2.625 0.4375 2.625 0 6 C-2.8904733 9.71991346 -5.68248337 11.82921081 -10.375 12.4375 C-13 12 -13 12 -14 11 C-14.30078125 8.640625 -14.30078125 8.640625 -14 6 C-12.35546875 4.234375 -12.35546875 4.234375 -10.1875 2.75 C-9.47980469 2.24984375 -8.77210937 1.7496875 -8.04296875 1.234375 C-4.8606577 -0.68839802 -3.600986 -1.20032867 0 0 Z " fill="#2C471B" transform="translate(71,175)"/>
<path d="M0 0 C0 0.66 0 1.32 0 2 C-0.99 2.495 -0.99 2.495 -2 3 C-1.67 3.66 -1.34 4.32 -1 5 C-1.68707031 4.98839844 -2.37414062 4.97679687 -3.08203125 4.96484375 C-3.98308594 4.95582031 -4.88414063 4.94679687 -5.8125 4.9375 C-6.70582031 4.92589844 -7.59914063 4.91429687 -8.51953125 4.90234375 C-11.13413791 4.88990033 -11.13413791 4.88990033 -14 6 C-12.68 6.66 -11.36 7.32 -10 8 C-14.75 12.875 -14.75 12.875 -17 14 C-17 13.01 -17 12.02 -17 11 C-17.66 10.67 -18.32 10.34 -19 10 C-19.33 9.67 -19.66 9.34 -20 9 C-20.66 8.67 -21.32 8.34 -22 8 C-15.06959078 2.12251009 -9.49007452 -2.31465232 0 0 Z " fill="#376128" transform="translate(88,166)"/>
<path d="M0 0 C0.33 0.99 0.66 1.98 1 3 C1.8971875 2.690625 1.8971875 2.690625 2.8125 2.375 C5 2 5 2 8 4 C6.49921893 7.82017001 4.40816719 9.75370799 1 12 C-2.3125 12.75 -2.3125 12.75 -5 13 C-5.268125 12.21625 -5.53625 11.4325 -5.8125 10.625 C-6.84814432 7.71885077 -6.84814432 7.71885077 -10 6 C-9.0925 5.566875 -8.185 5.13375 -7.25 4.6875 C-4.56781551 3.29482729 -2.33860395 1.88887243 0 0 Z " fill="#E50E26" transform="translate(100,145)"/>
<path d="M0 0 C0.66 1.32 1.32 2.64 2 4 C1.06725891 5.12894876 0.12859878 6.25300876 -0.8125 7.375 C-1.33457031 8.00148437 -1.85664062 8.62796875 -2.39453125 9.2734375 C-4.39750541 11.42748757 -6.04240077 12.90845132 -9.04296875 13.1953125 C-9.75066406 13.17210937 -10.45835938 13.14890625 -11.1875 13.125 C-13.0746875 13.063125 -13.0746875 13.063125 -15 13 C-15.625 10.625 -15.625 10.625 -16 8 C-13.35118807 5.35118807 -10.43407646 4.44592693 -7 3 C-6.01 2.34 -5.02 1.68 -4 1 C-4 2.66666667 -4 4.33333333 -4 6 C-3.34 6 -2.68 6 -2 6 C-2 4.68 -2 3.36 -2 2 C-1.34 2 -0.68 2 0 2 C0 1.34 0 0.68 0 0 Z " fill="#2E4B18" transform="translate(63,161)"/>
<path d="M0 0 C4.75 0.75 4.75 0.75 7 3 C7.76679965 6.83399823 8.24674659 9.25976024 7 13 C6.34 13 5.68 13 5 13 C5.103125 13.928125 5.20625 14.85625 5.3125 15.8125 C5.209375 16.864375 5.10625 17.91625 5 19 C2.48046875 20.69921875 2.48046875 20.69921875 0 22 C0.01740234 20.46279297 0.01740234 20.46279297 0.03515625 18.89453125 C0.04454022 17.533856 0.05363977 16.17317876 0.0625 14.8125 C0.07087891 14.13896484 0.07925781 13.46542969 0.08789062 12.77148438 C0.10615867 9.02653425 -0.25805101 5.65627117 -1 2 C-0.67 1.34 -0.34 0.68 0 0 Z " fill="#364413" transform="translate(140,133)"/>
<path d="M0 0 C0.33 0 0.66 0 1 0 C1.06994082 3.4970408 1.04648426 6.7365892 0.4375 10.1875 C0.01107825 12.92878267 0.22890786 14.39756404 1 17 C0.67 17.33 0.34 17.66 0 18 C-0.03192832 20.71846878 0.06836852 23.42370823 0.16015625 26.140625 C-0.00913855 29.16315657 -0.73034524 31.27148704 -2 34 C-5.30279049 30.69720951 -5.21023766 27.47801406 -5.3125 23 C-5.28666935 17.21393518 -4.22716822 12.73843136 -1.97265625 7.4375 C-0.98568766 4.96413292 -0.44449353 2.62017241 0 0 Z " fill="#FBFAF6" transform="translate(110,53)"/>
<path d="M0 0 C0.66 0 1.32 0 2 0 C2.71484375 1.734375 2.71484375 1.734375 3 4 C1.56640625 6.140625 1.56640625 6.140625 -0.4375 8.25 C-1.09621094 8.95640625 -1.75492188 9.6628125 -2.43359375 10.390625 C-2.95050781 10.92171875 -3.46742188 11.4528125 -4 12 C-4.7425 11.62875 -5.485 11.2575 -6.25 10.875 C-8.92882719 9.68848842 -8.92882719 9.68848842 -11.125 10.9375 C-11.74375 11.288125 -12.3625 11.63875 -13 12 C-13.99 11.67 -14.98 11.34 -16 11 C-14.28424984 9.31730282 -12.55467361 7.65495311 -10.8125 6 C-10.32974609 5.52304688 -9.84699219 5.04609375 -9.34960938 4.5546875 C-6.92572892 2.27721593 -5.49369977 1.05388265 -2.13671875 0.6875 C-1.43160156 0.790625 -0.72648438 0.89375 0 1 C0 0.67 0 0.34 0 0 Z " fill="#23300F" transform="translate(135,174)"/>
<path d="M0 0 C1.65 0 3.3 0 5 0 C5 5.28 5 10.56 5 16 C2.69 15.34 0.38 14.68 -2 14 C-2.33 10.7 -2.66 7.4 -3 4 C-2.01 4 -1.02 4 0 4 C0 2.68 0 1.36 0 0 Z " fill="#F24218" transform="translate(77,82)"/>
<path d="M0 0 C0.99 0 1.98 0 3 0 C6.03742032 4.55613047 5.3586349 9.84819061 4.5 15 C4.335 15.66 4.17 16.32 4 17 C3.01 16.34 2.02 15.68 1 15 C1 14.34 1 13.68 1 13 C-0.65 13 -2.3 13 -4 13 C-4.33 13.66 -4.66 14.32 -5 15 C-5.66 14.67 -6.32 14.34 -7 14 C-6.1028125 12.7625 -6.1028125 12.7625 -5.1875 11.5 C-2.75199099 7.87707201 -1.41925254 4.11583237 0 0 Z " fill="#DA9320" transform="translate(106,41)"/>
<path d="M0 0 C0.66 0.33 1.32 0.66 2 1 C2.4140625 4.16015625 2.4140625 4.16015625 2.625 8.0625 C2.69976562 9.35285156 2.77453125 10.64320313 2.8515625 11.97265625 C2.90054688 12.97167969 2.94953125 13.97070312 3 15 C3.99 14.67 4.98 14.34 6 14 C6.33 10.04 6.66 6.08 7 2 C7.33 2 7.66 2 8 2 C8.61729921 10.75193098 8.25817906 17.6977964 3 25 C2.01 25.66 1.02 26.32 0 27 C-0.33 25.68 -0.66 24.36 -1 23 C-2.32 22.67 -3.64 22.34 -5 22 C-4.360625 21.21625 -3.72125 20.4325 -3.0625 19.625 C0.21684868 15.4512835 0.1241173 12.51293483 0.0625 7.375 C0.05798828 6.66859375 0.05347656 5.9621875 0.04882812 5.234375 C0.03703875 3.48954725 0.01910324 1.744763 0 0 Z " fill="#F7DCD7" transform="translate(109,132)"/>
<path d="M0 0 C0.66 0 1.32 0 2 0 C2 0.66 2 1.32 2 2 C3.32 1.67 4.64 1.34 6 1 C6 1.66 6 2.32 6 3 C7.65 2.67 9.3 2.34 11 2 C8.83328568 4.27505004 6.60436769 6.23575092 4 8 C3.34 8 2.68 8 2 8 C2 8.99 2 9.98 2 11 C-2.1747899 11.34789916 -3.79678245 10.60774762 -7 8 C-5.88200014 6.66079162 -4.75538103 5.32877444 -3.625 4 C-2.68527344 2.88625 -2.68527344 2.88625 -1.7265625 1.75 C-1.15679687 1.1725 -0.58703125 0.595 0 0 Z " fill="#293F16" transform="translate(79,181)"/>
<path d="M0 0 C1.65 0 3.3 0 5 0 C5.33848652 1.89492006 5.67056911 3.79098466 6 5.6875 C6.185625 6.74324219 6.37125 7.79898438 6.5625 8.88671875 C6.95068074 11.64904062 7.08259976 14.21742043 7 17 C6.34 17 5.68 17 5 17 C5 16.34 5 15.68 5 15 C3.35 14.67 1.7 14.34 0 14 C0 9.38 0 4.76 0 0 Z " fill="#EB6217" transform="translate(83,84)"/>
<path d="M0 0 C1.6266848 0.28211877 3.25132896 0.57602375 4.875 0.875 C5.77992187 1.03742188 6.68484375 1.19984375 7.6171875 1.3671875 C10 2 10 2 12 4 C13.32 4 14.64 4 16 4 C18.25 5.5 18.25 5.5 20 7 C19.67 7.66 19.34 8.32 19 9 C17.68 8.34 16.36 7.68 15 7 C14.34 7.66 13.68 8.32 13 9 C13.33 9.99 13.66 10.98 14 12 C12.0625 11.3125 12.0625 11.3125 10 10 C9.25 7.375 9.25 7.375 9 5 C7.68 4.67 6.36 4.34 5 4 C4.8453125 4.9590625 4.8453125 4.9590625 4.6875 5.9375 C4.460625 6.618125 4.23375 7.29875 4 8 C0.23375329 9.25541557 -1.37188934 8.37061958 -5 7 C-5 6.34 -5 5.68 -5 5 C0.75 4.875 0.75 4.875 3 6 C2.67 5.34 2.34 4.68 2 4 C1.01 3.67 0.02 3.34 -1 3 C-0.67 2.01 -0.34 1.02 0 0 Z " fill="#EF6B16" transform="translate(103,96)"/>
<path d="M0 0 C0.33 0.66 0.66 1.32 1 2 C-5.06589249 10.35955808 -11.06618391 17.48177347 -21 21 C-20.67 20.01 -20.34 19.02 -20 18 C-20.66 17.34 -21.32 16.68 -22 16 C-21.20335938 15.62488281 -20.40671875 15.24976563 -19.5859375 14.86328125 C-11.40209946 10.91074633 -5.4901946 7.39064657 0 0 Z " fill="#E5EBE3" transform="translate(134,167)"/>
<path d="M0 0 C3.63 0 7.26 0 11 0 C11 0.66 11 1.32 11 2 C13.475 2.495 13.475 2.495 16 3 C16 4.32 16 5.64 16 7 C13.0751367 7.84191782 10.49258344 8.11819313 7.453125 8.09765625 C6.60878906 8.09443359 5.76445313 8.09121094 4.89453125 8.08789062 C4.02183594 8.07951172 3.14914063 8.07113281 2.25 8.0625 C0.91775391 8.05573242 0.91775391 8.05573242 -0.44140625 8.04882812 C-2.62767329 8.037074 -4.81380179 8.02064249 -7 8 C-6.34 7.01 -5.68 6.02 -5 5 C-2.37302936 4.77862607 0.00893964 4.71837975 2.625 4.8125 C3.33140625 4.82603516 4.0378125 4.83957031 4.765625 4.85351562 C6.51074128 4.8888896 8.25546608 4.94269779 10 5 C9.34 4.34 8.68 3.68 8 3 C8.66 3 9.32 3 10 3 C10 2.34 10 1.68 10 1 C6.7 1 3.4 1 0 1 C0 0.67 0 0.34 0 0 Z " fill="#41623B" transform="translate(96,177)"/>
<path d="M0 0 C0.99 0.33 1.98 0.66 3 1 C3.05398987 3.27057377 3.09278742 5.54151288 3.125 7.8125 C3.14820312 9.07707031 3.17140625 10.34164062 3.1953125 11.64453125 C3 15 3 15 1 18 C1 17.34 1 16.68 1 16 C0.34 16 -0.32 16 -1 16 C-1.33 16.66 -1.66 17.32 -2 18 C-2 12.39 -2 6.78 -2 1 C-1.34 0.67 -0.68 0.34 0 0 Z " fill="#F8FBFA" transform="translate(113,131)"/>
<path d="M0 0 C1.32 0 2.64 0 4 0 C4 0.66 4 1.32 4 2 C5.2065625 1.7215625 5.2065625 1.7215625 6.4375 1.4375 C7.7059375 1.2209375 7.7059375 1.2209375 9 1 C10.93173103 2.93173103 10.63390259 6.39155594 11 9 C11.33 9.66 11.66 10.32 12 11 C9.525 12.485 9.525 12.485 7 14 C6.401875 12.948125 5.80375 11.89625 5.1875 10.8125 C3.91366341 8.57308622 2.61179435 6.37609806 1.25 4.1875 C0 2 0 2 0 0 Z " fill="#E81729" transform="translate(78,109)"/>
<path d="M0 0 C1.89492187 0.01353516 1.89492187 0.01353516 3.828125 0.02734375 C4.79234375 0.03894531 5.7565625 0.05054688 6.75 0.0625 C6.75 1.0525 6.75 2.0425 6.75 3.0625 C3.75 4.0625 3.75 4.0625 0.75 4.0625 C0.75 4.7225 0.75 5.3825 0.75 6.0625 C-3.68076923 8.15480769 -3.68076923 8.15480769 -6.5625 7.6875 C-7.119375 7.48125 -7.67625 7.275 -8.25 7.0625 C-8.435625 6.134375 -8.435625 6.134375 -8.625 5.1875 C-9.12197356 2.87129168 -9.12197356 2.87129168 -11.25 1.0625 C-7.49600202 -0.1414337 -3.91782588 -0.03627617 0 0 Z " fill="#33411E" transform="translate(95.25,190.9375)"/>
<path d="M0 0 C0.33 0 0.66 0 1 0 C1 2.97 1 5.94 1 9 C2.65 8.67 4.3 8.34 6 8 C6 8.99 6 9.98 6 11 C6.66 11 7.32 11 8 11 C8 10.34 8 9.68 8 9 C8.66 9 9.32 9 10 9 C10.66 8.01 11.32 7.02 12 6 C12.3152595 11.98993047 11.68219822 15.63560356 9 21 C8.34 20.67 7.68 20.34 7 20 C7 19.34 7 18.68 7 18 C6.34 17.34 5.68 16.68 5 16 C6.65 15.67 8.3 15.34 10 15 C9.67 14.34 9.34 13.68 9 13 C7.68 13 6.36 13 5 13 C4.67 13.99 4.34 14.98 4 16 C3.34 16 2.68 16 2 16 C2 15.01 2 14.02 2 13 C1.34 12.67 0.68 12.34 0 12 C0 8.04 0 4.08 0 0 Z " fill="#E40C17" transform="translate(117,135)"/>
<path d="M0 0 C0.33 0 0.66 0 1 0 C1.103125 1.258125 1.20625 2.51625 1.3125 3.8125 C1.62936258 7.10086081 1.62936258 7.10086081 3.625 9.625 C4.07875 10.07875 4.5325 10.5325 5 11 C4.79642205 15.58050383 3.1809079 19.01747254 1 23 C0.34 22.67 -0.32 22.34 -1 22 C-1 21.01 -1 20.02 -1 19 C-1.99 18.67 -2.98 18.34 -4 18 C-3.525625 16.88625 -3.05125 15.7725 -2.5625 14.625 C-0.73814745 9.82316641 -0.30291156 5.09727034 0 0 Z " fill="#F6EEE7" transform="translate(129,139)"/>
<path d="M0 0 C2.31 0.33 4.62 0.66 7 1 C6.67 3.97 6.34 6.94 6 10 C1.545 10.495 1.545 10.495 -3 11 C-2.01 7.37 -1.02 3.74 0 0 Z " fill="#FBF6F3" transform="translate(79,128)"/>
<path d="M0 0 C0.66 0.33 1.32 0.66 2 1 C2.99 1.33 3.98 1.66 5 2 C4.67 3.65 4.34 5.3 4 7 C3.01 6.67 2.02 6.34 1 6 C1.33 6.99 1.66 7.98 2 9 C0.02 9.99 0.02 9.99 -2 11 C-1.01 11.33 -0.02 11.66 1 12 C-0.65 12 -2.3 12 -4 12 C-4 10.02 -4 8.04 -4 6 C-6.64 6 -9.28 6 -12 6 C-12 5.67 -12 5.34 -12 5 C-11.30132812 4.80664062 -10.60265625 4.61328125 -9.8828125 4.4140625 C-8.97273438 4.15367187 -8.06265625 3.89328125 -7.125 3.625 C-6.22007813 3.36976563 -5.31515625 3.11453125 -4.3828125 2.8515625 C-1.85430274 2.1395685 -1.85430274 2.1395685 0 0 Z " fill="#D42332" transform="translate(108,159)"/>
<path d="M0 0 C1.98 0.495 1.98 0.495 4 1 C3.67 1.99 3.34 2.98 3 4 C3.66 4 4.32 4 5 4 C5.33 2.68 5.66 1.36 6 0 C7.65 0 9.3 0 11 0 C11 0.99 11 1.98 11 3 C9.35 3.33 7.7 3.66 6 4 C6.309375 5.423125 6.309375 5.423125 6.625 6.875 C6.74875 7.90625 6.8725 8.9375 7 10 C6.34 10.66 5.68 11.32 5 12 C4.01 10.68 3.02 9.36 2 8 C1.34 8.99 0.68 9.98 0 11 C-1.125 3.375 -1.125 3.375 0 0 Z " fill="#EB1425" transform="translate(116,147)"/>
<path d="M0 0 C2 2 2 2 2.01171875 3.98828125 C1.90472656 4.75527344 1.79773438 5.52226562 1.6875 6.3125 C1.57921875 7.11171875 1.4709375 7.9109375 1.359375 8.734375 C0.9725851 11.17283307 0.54388973 13.59134546 0 16 C-0.66 16 -1.32 16 -2 16 C-2.33 17.65 -2.66 19.3 -3 21 C-4.32 21 -5.64 21 -7 21 C-6.67 17.7 -6.34 14.4 -6 11 C-4.68 10.67 -3.36 10.34 -2 10 C-1.34 6.7 -0.68 3.4 0 0 Z " fill="#355A1D" transform="translate(139,144)"/>
<path d="M0 0 C0 0.66 0 1.32 0 2 C1.32 1.67 2.64 1.34 4 1 C3.67 3.31 3.34 5.62 3 8 C3.66 8 4.32 8 5 8 C5.33 6.68 5.66 5.36 6 4 C7.26237731 6.52475462 7.09856404 8.31200466 7.0625 11.125 C7.05347656 12.03507813 7.04445313 12.94515625 7.03515625 13.8828125 C7.02355469 14.58148438 7.01195313 15.28015625 7 16 C5 13 5 13 5 10 C4.01 10 3.02 10 2 10 C2.33 11.32 2.66 12.64 3 14 C2.34 14 1.68 14 1 14 C1 12.02 1 10.04 1 8 C0.34 7.67 -0.32 7.34 -1 7 C-0.34 7 0.32 7 1 7 C1 6.01 1 5.02 1 4 C0.01 4.33 -0.98 4.66 -2 5 C-2.66 4.67 -3.32 4.34 -4 4 C-4 3.01 -4 2.02 -4 1 C-2 0 -2 0 0 0 Z " fill="#ED1310" transform="translate(103,128)"/>
<path d="M0 0 C1.32 0.66 2.64 1.32 4 2 C4.29296875 8.0546875 4.29296875 8.0546875 4 10 C3.01 10.66 2.02 11.32 1 12 C0.01 11.01 -0.98 10.02 -2 9 C-1.01 9 -0.02 9 1 9 C1 8.34 1 7.68 1 7 C-0.1446875 7.7115625 -0.1446875 7.7115625 -1.3125 8.4375 C-4 10 -4 10 -7 11 C-7.33 11.66 -7.66 12.32 -8 13 C-8.99 12.34 -9.98 11.68 -11 11 C-10.071875 10.5875 -9.14375 10.175 -8.1875 9.75 C-3.76523661 7.32209069 -2.08107297 4.48231102 0 0 Z " fill="#F7ECE9" transform="translate(96,134)"/>
<path d="M0 0 C0.66 0 1.32 0 2 0 C2 0.66 2 1.32 2 2 C3.04220703 2.19916016 3.04220703 2.19916016 4.10546875 2.40234375 C7.19870986 3.04102916 10.25040398 3.78856364 13.3125 4.5625 C14.38113281 4.83191406 15.44976562 5.10132812 16.55078125 5.37890625 C17.76314453 5.68634766 17.76314453 5.68634766 19 6 C19 7.32 19 8.64 19 10 C18.01 10 17.02 10 16 10 C16 9.34 16 8.68 16 8 C14.80375 7.855625 13.6075 7.71125 12.375 7.5625 C8.8994842 7.12960657 5.45049966 6.60383744 2 6 C1.34 4.02 0.68 2.04 0 0 Z " fill="#E87509" transform="translate(85,68)"/>
<path d="M0 0 C0.33 0.66 0.66 1.32 1 2 C1.99 2 2.98 2 4 2 C2.82255415 5.53233755 2.04394359 5.86308075 -1.0625 7.6875 C-2.16271484 8.34298828 -2.16271484 8.34298828 -3.28515625 9.01171875 C-3.85105469 9.33785156 -4.41695313 9.66398438 -5 10 C-5.33 9.01 -5.66 8.02 -6 7 C-6.66 7 -7.32 7 -8 7 C-8 5.35 -8 3.7 -8 2 C-6.865625 1.855625 -5.73125 1.71125 -4.5625 1.5625 C-1.19222799 1.38828522 -1.19222799 1.38828522 0 0 Z " fill="#2A3416" transform="translate(126,183)"/>
<path d="M0 0 C3.94525591 3.26503938 5.85708806 7.06518395 7 12 C6.67 12.66 6.34 13.32 6 14 C3.95631248 11.95631248 1.92041703 9.91559382 -0.0625 7.8125 C-1.96539122 5.77977645 -1.96539122 5.77977645 -5 5 C-3.35 3.35 -1.7 1.7 0 0 Z " fill="#F24725" transform="translate(122,124)"/>
<path d="M0 0 C0.33 0.99 0.66 1.98 1 3 C4.3 3.66 7.6 4.32 11 5 C11 6.32 11 7.64 11 9 C6.61841038 8.17845195 2.31791556 7.09879362 -2 6 C-3.33319683 5.66612114 -4.66649215 5.33263448 -6 5 C-4.02 3.35 -2.04 1.7 0 0 Z " fill="#E7851F" transform="translate(93,60)"/>
<path d="M0 0 C4.26086957 6.39130435 4.26086957 6.39130435 3.625 10.3125 C3.41875 10.869375 3.2125 11.42625 3 12 C4.32 12.33 5.64 12.66 7 13 C5.576875 12.9690625 5.576875 12.9690625 4.125 12.9375 C1.09333717 12.77448174 1.09333717 12.77448174 -1 14 C-1 13.34 -1 12.68 -1 12 C-1.66 11.67 -2.32 11.34 -3 11 C-2.34 11 -1.68 11 -1 11 C-1.66 10.01 -2.32 9.02 -3 8 C-3 5 -3 5 -1.5 3.3125 C-0.7575 2.6628125 -0.7575 2.6628125 0 2 C-0.66 1.67 -1.32 1.34 -2 1 C-1.34 0.67 -0.68 0.34 0 0 Z " fill="#EC2E2D" transform="translate(73,127)"/>
<path d="M0 0 C3.71105283 3.31344003 5.91357936 6.51805937 8 11 C7.75 14.4375 7.75 14.4375 7 17 C6.34 17 5.68 17 5 17 C5 15.02 5 13.04 5 11 C4.01 11 3.02 11 2 11 C2 10.34 2 9.68 2 9 C0.68 9.33 -0.64 9.66 -2 10 C-1.625 7.0625 -1.625 7.0625 -1 4 C-0.34 3.67 0.32 3.34 1 3 C0.67 2.01 0.34 1.02 0 0 Z " fill="#F3472F" transform="translate(101,119)"/>
<path d="M0 0 C0.33 0.99 0.66 1.98 1 3 C-2.42094242 5.28062828 -3.68187222 5.21925007 -7.6875 5.125 C-9.17830078 5.09792969 -9.17830078 5.09792969 -10.69921875 5.0703125 C-11.45847656 5.04710937 -12.21773438 5.02390625 -13 5 C-11.2109375 1.09375 -11.2109375 1.09375 -9.3125 0.25 C-6.19853938 -0.08664439 -3.12892809 -0.06017169 0 0 Z " fill="#FAFBFB" transform="translate(109,172)"/>
<path d="M0 0 C0.66 0.33 1.32 0.66 2 1 C1.484375 1.37125 0.96875 1.7425 0.4375 2.125 C-1.36319983 4.03173152 -1.36319983 4.03173152 -0.6875 7.1875 C-0.3471875 8.5796875 -0.3471875 8.5796875 0 10 C-1.32 10.33 -2.64 10.66 -4 11 C-3.67 10.01 -3.34 9.02 -3 8 C-3.66 8 -4.32 8 -5 8 C-5.33 8.99 -5.66 9.98 -6 11 C-6.66 11 -7.32 11 -8 11 C-8 10.34 -8 9.68 -8 9 C-8.66 8.67 -9.32 8.34 -10 8 C-6.7 5.36 -3.4 2.72 0 0 Z " fill="#EEF3EE" transform="translate(72,160)"/>
<path d="M0 0 C2.19411358 2.19411358 3.19663232 4.16091525 4.5625 6.9375 C4.99691406 7.81277344 5.43132812 8.68804687 5.87890625 9.58984375 C7 12 7 12 8 15 C5.0625 14.25 5.0625 14.25 2 13 C1.3125 11.0625 1.3125 11.0625 1 9 C-0.47890069 7.26973898 -0.47890069 7.26973898 -2 6 C-1.34 4.02 -0.68 2.04 0 0 Z " fill="#EF5C27" transform="translate(90,100)"/>
<path d="M0 0 C0.33 0.99 0.66 1.98 1 3 C2.65 3.33 4.3 3.66 6 4 C6 4.66 6 5.32 6 6 C5.34 6 4.68 6 4 6 C4 6.66 4 7.32 4 8 C4.66 8 5.32 8 6 8 C5.67 10.64 5.34 13.28 5 16 C2.79459886 13.79459886 1.7599273 11.78605258 0.375 9 C-0.07101563 8.113125 -0.51703125 7.22625 -0.9765625 6.3125 C-2 4 -2 4 -2 2 C-1.34 2 -0.68 2 0 2 C0 1.34 0 0.68 0 0 Z " fill="#EE461E" transform="translate(111,116)"/>
<path d="M0 0 C3.63 0.66 7.26 1.32 11 2 C10.01 3.32 9.02 4.64 8 6 C7.34 6 6.68 6 6 6 C6 7.65 6 9.3 6 11 C0.86376022 6.04087193 0.86376022 6.04087193 -1 3 C-0.67 2.01 -0.34 1.02 0 0 Z " fill="#ED5A11" transform="translate(125,113)"/>
<path d="M0 0 C3 3.75 3 3.75 3 6 C5.97 6.33 8.94 6.66 12 7 C11.01 7.33 10.02 7.66 9 8 C8.67 8.66 8.34 9.32 8 10 C5.69 9.34 3.38 8.68 1 8 C1 6.68 1 5.36 1 4 C0.01 4.495 0.01 4.495 -1 5 C-1.33 5.99 -1.66 6.98 -2 8 C-2.99 8 -3.98 8 -5 8 C-3.62845496 5.04590299 -2.01136276 2.55991624 0 0 Z " fill="#ED721F" transform="translate(84,68)"/>
<path d="M0 0 C2.64 0.33 5.28 0.66 8 1 C8.33 1.99 8.66 2.98 9 4 C0.57142857 6.28571429 0.57142857 6.28571429 -4 6 C-4.33 5.01 -4.66 4.02 -5 3 C-3.68 3 -2.36 3 -1 3 C-0.67 2.01 -0.34 1.02 0 0 Z " fill="#2A3715" transform="translate(103,193)"/>
<path d="M0 0 C1.32 0 2.64 0 4 0 C4 0.66 4 1.32 4 2 C5.65 2 7.3 2 9 2 C9 2.33 9 2.66 9 3 C6.03 3 3.06 3 0 3 C0 2.01 0 1.02 0 0 Z M0 3 C0 3.66 0 4.32 0 5 C-0.99 5.33 -1.98 5.66 -3 6 C-3 6.66 -3 7.32 -3 8 C-5.64 8 -8.28 8 -11 8 C-10.875 6.125 -10.875 6.125 -10 4 C-6.36961463 2.30582016 -3.80522763 1.53645091 0 3 Z " fill="#1B2906" transform="translate(102,191)"/>
<path d="M0 0 C0 0.66 0 1.32 0 2 C0.99 1.67 1.98 1.34 3 1 C3.66 1.66 4.32 2.32 5 3 C3.35 3.33 1.7 3.66 0 4 C0 5.32 0 6.64 0 8 C-1.66611905 8.042721 -3.33382885 8.04063832 -5 8 C-6 7 -6 7 -6.25 4.5625 C-6.1675 3.716875 -6.085 2.87125 -6 2 C-3 0 -3 0 0 0 Z " fill="#273F13" transform="translate(63,179)"/>
<path d="M0 0 C0 0.66 0 1.32 0 2 C3.465 1.505 3.465 1.505 7 1 C7.33 1.66 7.66 2.32 8 3 C8.66 3 9.32 3 10 3 C10 3.66 10 4.32 10 5 C4.375 8 4.375 8 1 8 C0.731875 7.21625 0.46375 6.4325 0.1875 5.625 C-0.84814432 2.71885077 -0.84814432 2.71885077 -4 1 C-2 0 -2 0 0 0 Z " fill="#D5132D" transform="translate(94,150)"/>
<path d="M0 0 C1.32 0 2.64 0 4 0 C3.34 1.65 2.68 3.3 2 5 C3.32 5.33 4.64 5.66 6 6 C5.74438677 8.3431213 5.40729228 10.67843403 5 13 C4.01 13.495 4.01 13.495 3 14 C3 13.01 3 12.02 3 11 C2.34 11 1.68 11 1 11 C0.67 7.37 0.34 3.74 0 0 Z " fill="#E60621" transform="translate(88,128)"/>
<path d="M0 0 C-0.33 1.65 -0.66 3.3 -1 5 C-4.05847848 5.54372951 -6.88772805 6 -10 6 C-10 3 -10 3 -8.9375 1.3125 C-6.02679298 -0.65926927 -3.41970529 -0.19356822 0 0 Z " fill="#FBFBFC" transform="translate(81,160)"/>
<path d="M0 0 C0.33 0 0.66 0 1 0 C1.44571523 8.12192202 1.52706476 14.0762539 -3 21 C-3.66 21.33 -4.32 21.66 -5 22 C-5 21.01 -5 20.02 -5 19 C-5.66 18.67 -6.32 18.34 -7 18 C-4.375 13.125 -4.375 13.125 -1 12 C-0.67 8.04 -0.34 4.08 0 0 Z " fill="#F7E8E2" transform="translate(116,134)"/>
<path d="M0 0 C2.64 0 5.28 0 8 0 C8.33 1.65 8.66 3.3 9 5 C2.07 4.505 2.07 4.505 -5 4 C-4.67 3.34 -4.34 2.68 -4 2 C-2.68 2 -1.36 2 0 2 C0 1.34 0 0.68 0 0 Z " fill="#3B5E2A" transform="translate(96,165)"/>
<path d="M0 0 C0.99 0 1.98 0 3 0 C3 0.66 3 1.32 3 2 C3.598125 1.79375 4.19625 1.5875 4.8125 1.375 C7 1 7 1 10 3 C8.35 4.65 6.7 6.3 5 8 C2 7 2 7 0 4 C0 2.68 0 1.36 0 0 Z " fill="#C71A2B" transform="translate(46,154)"/>
<path d="M0 0 C0.66 0.99 1.32 1.98 2 3 C4.56282742 3.72965366 4.56282742 3.72965366 7 4 C2.25 8.875 2.25 8.875 0 10 C0 9.01 0 8.02 0 7 C-0.66 6.67 -1.32 6.34 -2 6 C-2.33 5.67 -2.66 5.34 -3 5 C-3.66 4.67 -4.32 4.34 -5 4 C-3.35 2.68 -1.7 1.36 0 0 Z " fill="#36592A" transform="translate(71,170)"/>
<path d="M0 0 C1.67739258 0.07734375 1.67739258 0.07734375 3.38867188 0.15625 C4.55591797 0.22070312 5.72316406 0.28515625 6.92578125 0.3515625 C8.10462891 0.40828125 9.28347656 0.465 10.49804688 0.5234375 C13.41206477 0.66500922 16.32523382 0.81643192 19.23828125 0.9765625 C19.23828125 1.3065625 19.23828125 1.6365625 19.23828125 1.9765625 C18.66907959 2.00161865 18.09987793 2.0266748 17.51342773 2.05249023 C14.90070812 2.16950144 12.28825763 2.2917453 9.67578125 2.4140625 C8.78052734 2.45337891 7.88527344 2.49269531 6.96289062 2.53320312 C1.99245935 2.76989033 -2.84995394 3.17477922 -7.76171875 3.9765625 C-8.09171875 3.3165625 -8.42171875 2.6565625 -8.76171875 1.9765625 C-5.25886001 -0.35867666 -4.10541937 -0.20839692 0 0 Z " fill="#214F1D" transform="translate(82.76171875,170.0234375)"/>
<path d="M0 0 C0.99 0 1.98 0 3 0 C5.61881031 3.92821547 5.28987737 7.43443139 5 12 C4.01 13.485 4.01 13.485 3 15 C3 12.36 3 9.72 3 7 C1.35 6.67 -0.3 6.34 -2 6 C-1.34 4.02 -0.68 2.04 0 0 Z " fill="#D2932A" transform="translate(106,41)"/>
<path d="M0 0 C0.33 0 0.66 0 1 0 C1.06994082 3.4970408 1.04648426 6.7365892 0.4375 10.1875 C0.01541773 12.90088602 0.11386776 14.4400624 1 17 C0.34 17 -0.32 17 -1 17 C-1.66 17.66 -2.32 18.32 -3 19 C-3.66 18.67 -4.32 18.34 -5 18 C-3.36959185 11.98922864 -1.72852643 5.98336072 0 0 Z " fill="#FBF1E8" transform="translate(110,53)"/>
<path d="M0 0 C0.66 0.33 1.32 0.66 2 1 C1.67 2.32 1.34 3.64 1 5 C2.65 5.33 4.3 5.66 6 6 C6.33 8.64 6.66 11.28 7 14 C3.40365256 10.50640535 0.16548033 6.88901869 -3 3 C-2.01 2.01 -1.02 1.02 0 0 Z " fill="#F6F0E7" transform="translate(133,106)"/>
<path d="M0 0 C1.28583984 0.43892578 1.28583984 0.43892578 2.59765625 0.88671875 C3.87962891 1.31404297 3.87962891 1.31404297 5.1875 1.75 C6.41146484 2.15798828 6.41146484 2.15798828 7.66015625 2.57421875 C8.98985215 2.92177839 10.32203784 3.26064576 11.66015625 3.57421875 C11.66015625 4.56421875 11.66015625 5.55421875 11.66015625 6.57421875 C8.635961 5.98618078 5.64257172 5.34743757 2.66015625 4.57421875 C2.66015625 3.91421875 2.66015625 3.25421875 2.66015625 2.57421875 C0.02015625 2.24421875 -2.61984375 1.91421875 -5.33984375 1.57421875 C-2.33984375 -0.42578125 -2.33984375 -0.42578125 0 0 Z " fill="#E5820A" transform="translate(93.33984375,65.42578125)"/>
<path d="M0 0 C0.33 0 0.66 0 1 0 C0.82774538 6.90584443 -0.58124509 10.67483383 -5 16 C-5.66 15.34 -6.32 14.68 -7 14 C-6.625 11.875 -6.625 11.875 -6 10 C-5.34 10 -4.68 10 -4 10 C-3.87625 9.360625 -3.7525 8.72125 -3.625 8.0625 C-3.41875 7.381875 -3.2125 6.70125 -3 6 C-2.34 5.67 -1.68 5.34 -1 5 C-0.34444881 2.47266765 -0.34444881 2.47266765 0 0 Z " fill="#F5E7E6" transform="translate(56,103)"/>
<path d="M0 0 C0 1.65 0 3.3 0 5 C-2.97 4.67 -5.94 4.34 -9 4 C-8 1 -8 1 -6.1875 -0.25 C-3.66056586 -1.11637742 -2.47778006 -0.88492145 0 0 Z " fill="#F1121E" transform="translate(72,136)"/>
<path d="M0 0 C2 2 2 2 2.1953125 4.1640625 C2.17210938 4.97617188 2.14890625 5.78828125 2.125 6.625 C2.10695313 7.44226563 2.08890625 8.25953125 2.0703125 9.1015625 C2.03550781 10.04128906 2.03550781 10.04128906 2 11 C0.35 10.67 -1.3 10.34 -3 10 C-3.36923077 4.58461538 -3.36923077 4.58461538 -1.5 1.625 C-1.005 1.08875 -0.51 0.5525 0 0 Z " fill="#F02A12" transform="translate(78,86)"/>
<path d="M0 0 C2.31 0 4.62 0 7 0 C7 2.31 7 4.62 7 7 C7.99 7.33 8.98 7.66 10 8 C9.67 8.66 9.34 9.32 9 10 C8.34 10 7.68 10 7 10 C7 9.34 7 8.68 7 8 C6.01 7.67 5.02 7.34 4 7 C4 5.68 4 4.36 4 3 C2.68 2.67 1.36 2.34 0 2 C0 1.34 0 0.68 0 0 Z " fill="#F0500D" transform="translate(82,101)"/>
<path d="M0 0 C0.80050781 0.22042969 1.60101563 0.44085938 2.42578125 0.66796875 C3.23402344 0.88066406 4.04226562 1.09335937 4.875 1.3125 C5.79732422 1.58126953 5.79732422 1.58126953 6.73828125 1.85546875 C6.07828125 3.17546875 5.41828125 4.49546875 4.73828125 5.85546875 C-3.01171875 3.98046875 -3.01171875 3.98046875 -5.26171875 2.85546875 C-2.89519796 -0.18501265 -2.89519796 -0.18501265 0 0 Z " fill="#DE8B28" transform="translate(99.26171875,56.14453125)"/>
<path d="M0 0 C3.63 0 7.26 0 11 0 C11 0.66 11 1.32 11 2 C12.65 2.33 14.3 2.66 16 3 C16 4.32 16 5.64 16 7 C12.64404172 6.40072174 10.62198774 5.15377564 8 3 C8.66 3 9.32 3 10 3 C10 2.34 10 1.68 10 1 C6.7 1 3.4 1 0 1 C0 0.67 0 0.34 0 0 Z " fill="#4C6D3E" transform="translate(96,177)"/>
<path d="M0 0 C0.66 0 1.32 0 2 0 C2.69710731 1.28650706 3.38242876 2.57940665 4.0625 3.875 C4.63677734 4.95394531 4.63677734 4.95394531 5.22265625 6.0546875 C5.47917969 6.69664063 5.73570313 7.33859375 6 8 C5.67 8.66 5.34 9.32 5 10 C4.401875 9.690625 3.80375 9.38125 3.1875 9.0625 C0.91043228 7.89790296 0.91043228 7.89790296 -2 7 C-2 6.01 -2 5.02 -2 4 C-1.34 4 -0.68 4 0 4 C0 2.68 0 1.36 0 0 Z " fill="#EC6634" transform="translate(73,118)"/>
<path d="M0 0 C0.66 0 1.32 0 2 0 C2 1.32 2 2.64 2 4 C2.66 4 3.32 4 4 4 C4 4.66 4 5.32 4 6 C4.66 6.33 5.32 6.66 6 7 C6 7.66 6 8.32 6 9 C4.35 9 2.7 9 1 9 C-0.61949011 6.42786866 -1.04408751 5.32330841 -0.625 2.25 C-0.41875 1.5075 -0.2125 0.765 0 0 Z " fill="#C52135" transform="translate(43,154)"/>
<path d="M0 0 C3 1 6 2 9 3 C8.01 3.495 8.01 3.495 7 4 C7 4.66 7 5.32 7 6 C4.525 5.01 4.525 5.01 2 4 C1.34 5.32 0.68 6.64 0 8 C-0.66 6.02 -1.32 4.04 -2 2 C-1.34 1.34 -0.68 0.68 0 0 Z " fill="#ED7533" transform="translate(117,102)"/>
<path d="M0 0 C8.57142857 1 8.57142857 1 12 2 C10.1875 4 10.1875 4 8 6 C7.01 6 6.02 6 5 6 C5 5.01 5 4.02 5 3 C3.35 2.67 1.7 2.34 0 2 C0 1.34 0 0.68 0 0 Z " fill="#235226" transform="translate(107,177)"/>
<path d="M0 0 C0.66 1.32 1.32 2.64 2 4 C1.34 4 0.68 4 0 4 C0 5.65 0 7.3 0 9 C0.66 9.33 1.32 9.66 2 10 C1.67 10.99 1.34 11.98 1 13 C0.01 13 -0.98 13 -2 13 C-3.35384615 5.73846154 -3.35384615 5.73846154 -1.5625 2 C-1.046875 1.34 -0.53125 0.68 0 0 Z " fill="#CB091F" transform="translate(45,131)"/>
<path d="M0 0 C0.33 0.99 0.66 1.98 1 3 C1.66 3 2.32 3 3 3 C2.67 3.99 2.34 4.98 2 6 C1.34 6 0.68 6 0 6 C0 6.99 0 7.98 0 9 C-1.98 9.66 -3.96 10.32 -6 11 C-4.50120132 7.88711043 -2.78832621 4.95462591 -1 2 C-0.67 1.34 -0.34 0.68 0 0 Z " fill="#ED3419" transform="translate(70,126)"/>
<path d="M0 0 C0.66 0.99 1.32 1.98 2 3 C-0.97 7.95 -0.97 7.95 -4 13 C-5.10191901 8.59232396 -4.58706842 7.1077065 -3 3 C-2.34 3 -1.68 3 -1 3 C-0.67 2.01 -0.34 1.02 0 0 Z " fill="#DB142C" transform="translate(62,114)"/>
<path d="M0 0 C2.31 0.66 4.62 1.32 7 2 C7 2.66 7 3.32 7 4 C6.01 4 5.02 4 4 4 C4 4.66 4 5.32 4 6 C3.01 6.33 2.02 6.66 1 7 C0.34 6.34 -0.32 5.68 -1 5 C-0.625 2.375 -0.625 2.375 0 0 Z " fill="#F05822" transform="translate(107,112)"/>
<path d="M0 0 C0.66 0 1.32 0 2 0 C2.99 2.31 3.98 4.62 5 7 C0.25 8 0.25 8 -2 8 C-1.125 1.125 -1.125 1.125 0 0 Z " fill="#FCF2F0" transform="translate(75,107)"/>
<path d="M0 0 C0.33 0 0.66 0 1 0 C0.979375 1.134375 0.95875 2.26875 0.9375 3.4375 C0.58422523 6.81575674 0.58422523 6.81575674 2 8 C2.25 10.9375 2.25 10.9375 2 14 C1.01 14.66 0.02 15.32 -1 16 C-1.85330338 10.16524985 -2.48351814 5.55139349 0 0 Z " fill="#F8FCFD" transform="translate(132,136)"/>
<path d="M0 0 C0.99 0 1.98 0 3 0 C3 0.99 3 1.98 3 3 C4.32 3 5.64 3 7 3 C7.33 2.01 7.66 1.02 8 0 C8.66 1.98 9.32 3.96 10 6 C7.525 7.485 7.525 7.485 5 9 C1.125 2.25 1.125 2.25 0 0 Z " fill="#E11D33" transform="translate(80,114)"/>
<path d="M0 0 C2.11007147 1.74310252 2.95559826 2.86337925 3.8125 5.5 C4 8 4 8 2 11 C0 8 0 8 0 5 C-0.99 5 -1.98 5 -3 5 C-1.125 1.125 -1.125 1.125 0 0 Z " fill="#424E1F" transform="translate(143,128)"/>
<path d="M0 0 C1.65 0.33 3.3 0.66 5 1 C5.33 1.99 5.66 2.98 6 4 C2.25 6 2.25 6 0 6 C0 5.34 0 4.68 0 4 C-0.66 4 -1.32 4 -2 4 C-2 3.34 -2 2.68 -2 2 C-1.34 2 -0.68 2 0 2 C0 1.34 0 0.68 0 0 Z " fill="#F0552B" transform="translate(117,120)"/>
<path d="M0 0 C1.32 0.33 2.64 0.66 4 1 C3.67 2.98 3.34 4.96 3 7 C2.01 7.33 1.02 7.66 0 8 C-1.125 5.6875 -1.125 5.6875 -2 3 C-1.34 2.01 -0.68 1.02 0 0 Z " fill="#F9EBDF" transform="translate(92,80)"/>
<path d="M0 0 C0.598125 0.185625 1.19625 0.37125 1.8125 0.5625 C4.16408762 1.22093687 4.16408762 1.22093687 7 0 C6.39816251 2.02045442 5.72693904 4.02111039 5 6 C4.01 6.495 4.01 6.495 3 7 C1.5 5.75 1.5 5.75 0 4 C0 2.68 0 1.36 0 0 Z " fill="#F6F2F0" transform="translate(41,121)"/>
<path d="M0 0 C0.33 0.66 0.66 1.32 1 2 C1.99 2.33 2.98 2.66 4 3 C4.144375 3.61875 4.28875 4.2375 4.4375 4.875 C5.1872454 7.7073715 6.59730651 8.44987517 9 10 C5.22089522 10 4.53893899 9.00296038 1.8125 6.5 C1.09707031 5.8503125 0.38164063 5.200625 -0.35546875 4.53125 C-0.89816406 4.0259375 -1.44085938 3.520625 -2 3 C-1.34 2.67 -0.68 2.34 0 2 C0 1.34 0 0.68 0 0 Z " fill="#F9EEE3" transform="translate(116,93)"/>
<path d="M0 0 C0 0.99 0 1.98 0 3 C0.9590625 3.4640625 0.9590625 3.4640625 1.9375 3.9375 C4 5 4 5 5 6 C5.04063832 7.66617115 5.042721 9.33388095 5 11 C4.34 11 3.68 11 3 11 C2.731875 10.360625 2.46375 9.72125 2.1875 9.0625 C1.11332248 6.66868314 1.11332248 6.66868314 -2 6 C-2 4.35 -2 2.7 -2 1 C-1.34 0.67 -0.68 0.34 0 0 Z " fill="#EA321D" transform="translate(118,125)"/>
<path d="M0 0 C0.66 0 1.32 0 2 0 C2 1.32 2 2.64 2 4 C2.66 4 3.32 4 4 4 C4 5.32 4 6.64 4 8 C3.34 8 2.68 8 2 8 C2 8.99 2 9.98 2 11 C1.34 11 0.68 11 0 11 C0 7.37 0 3.74 0 0 Z " fill="#E60624" transform="translate(57,109)"/>
<path d="M0 0 C1.46184058 0.22860058 2.91955419 0.48370392 4.375 0.75 C5.59316406 0.95882812 5.59316406 0.95882812 6.8359375 1.171875 C9 2 9 2 11 6 C7.37 5.34 3.74 4.68 0 4 C0 2.68 0 1.36 0 0 Z " fill="#ED6E0E" transform="translate(95,89)"/>
<path d="M0 0 C0.99 0.33 1.98 0.66 3 1 C2.1875 3.4375 2.1875 3.4375 1 6 C0.01 6.33 -0.98 6.66 -2 7 C-2.33 5.68 -2.66 4.36 -3 3 C-4.32 3.33 -5.64 3.66 -7 4 C-6.01 3.01 -5.02 2.02 -4 1 C-3.01 1.33 -2.02 1.66 -1 2 C-0.67 1.34 -0.34 0.68 0 0 Z " fill="#1E4E1E" transform="translate(125,170)"/>
<path d="M0 0 C0 0.66 0 1.32 0 2 C1.32 1.67 2.64 1.34 4 1 C3.67 2.65 3.34 4.3 3 6 C2.34 6 1.68 6 1 6 C1 5.34 1 4.68 1 4 C0.01 4.33 -0.98 4.66 -2 5 C-2.66 4.67 -3.32 4.34 -4 4 C-4 3.01 -4 2.02 -4 1 C-2 0 -2 0 0 0 Z " fill="#F01F12" transform="translate(103,128)"/>
<path d="M0 0 C0.33 0 0.66 0 1 0 C1 1.98 1 3.96 1 6 C2.65 6.33 4.3 6.66 6 7 C5.67 7.99 5.34 8.98 5 10 C4.67 10 4.34 10 4 10 C3.67 10.66 3.34 11.32 3 12 C2.34 12 1.68 12 1 12 C0.03929566 9.11788698 -0.10581883 7.30149956 -0.0625 4.3125 C-0.05347656 3.50425781 -0.04445313 2.69601563 -0.03515625 1.86328125 C-0.02355469 1.24839844 -0.01195313 0.63351563 0 0 Z " fill="#E51016" transform="translate(74,90)"/>
<path d="M0 0 C3.88975419 3.59054233 6.89732195 7.73898882 10 12 C9.01 12.66 8.02 13.32 7 14 C6.34 12.02 5.68 10.04 5 8 C4.34 8 3.68 8 3 8 C2.67 7.01 2.34 6.02 2 5 C1.34 4.67 0.68 4.34 0 4 C0 2.68 0 1.36 0 0 Z " fill="#E78835" transform="translate(107,87)"/>
<path d="M0 0 C0.598125 0.350625 1.19625 0.70125 1.8125 1.0625 C1.8125 2.0525 1.8125 3.0425 1.8125 4.0625 C0.4925 4.3925 -0.8275 4.7225 -2.1875 5.0625 C-3.1775 3.4125 -4.1675 1.7625 -5.1875 0.0625 C-2.1875 -0.9375 -2.1875 -0.9375 0 0 Z " fill="#FAF9F3" transform="translate(115.1875,89.9375)"/>
<path d="M0 0 C3.3 0 6.6 0 10 0 C10 0.66 10 1.32 10 2 C7.11584117 3.44207941 4.58278472 3.09394887 1.375 3.0625 C0.18648438 3.05347656 -1.00203125 3.04445312 -2.2265625 3.03515625 C-3.14179687 3.02355469 -4.05703125 3.01195312 -5 3 C-5 2.67 -5 2.34 -5 2 C-3.35 1.67 -1.7 1.34 0 1 C0 0.67 0 0.34 0 0 Z " fill="#2A541C" transform="translate(96,178)"/>
<path d="M0 0 C1.0013988 3.00419641 1.51421457 5.87709365 2 9 C2.66 9 3.32 9 4 9 C4 9.66 4 10.32 4 11 C0.31245243 10.50168276 -1.60490662 9.89932357 -4 7 C-2.68 4.69 -1.36 2.38 0 0 Z " fill="#4D703B" transform="translate(132,156)"/>
<path d="M0 0 C1.77706209 2.66559313 2.87548273 5.0280615 4 8 C3.01 8.495 3.01 8.495 2 9 C1.01 8.34 0.02 7.68 -1 7 C-1.99 7.495 -1.99 7.495 -3 8 C-3 5 -3 5 -1.5 3.3125 C-0.7575 2.6628125 -0.7575 2.6628125 0 2 C-0.66 1.67 -1.32 1.34 -2 1 C-1.34 0.67 -0.68 0.34 0 0 Z " fill="#F83C29" transform="translate(73,127)"/>
<path d="M0 0 C2.5 1.1875 2.5 1.1875 4.5 3.1875 C-2.25 4.3125 -2.25 4.3125 -4.5 3.1875 C-4.5 2.1975 -4.5 1.2075 -4.5 0.1875 C-2.5 -0.8125 -2.5 -0.8125 0 0 Z " fill="#E28707" transform="translate(98.5,59.8125)"/>
<path d="M0 0 C0.66 0 1.32 0 2 0 C1.34 4.62 0.68 9.24 0 14 C-0.33 13.01 -0.66 12.02 -1 11 C-1.66 10.67 -2.32 10.34 -3 10 C-2.25 3.375 -2.25 3.375 0 0 Z " fill="#E4EDE4" transform="translate(135,133)"/>
<path d="M0 0 C0.99 1.32 1.98 2.64 3 4 C2.01 4 1.02 4 0 4 C0 5.65 0 7.3 0 9 C-0.33 8.34 -0.66 7.68 -1 7 C-1.99 7 -2.98 7 -4 7 C-4 6.01 -4 5.02 -4 4 C-3.01 4 -2.02 4 -1 4 C-1 3.34 -1 2.68 -1 2 C-1.99 1.67 -2.98 1.34 -4 1 C-2.68 0.67 -1.36 0.34 0 0 Z " fill="#F3340D" transform="translate(100,119)"/>
<path d="M0 0 C0.99 0 1.98 0 3 0 C3.33 1.65 3.66 3.3 4 5 C3.01 5 2.02 5 1 5 C1.33 5.99 1.66 6.98 2 8 C2.12781786 10.67394964 2.04391871 13.32095857 2 16 C1.67 16 1.34 16 1 16 C-0.12862175 10.63904667 -0.09688221 5.44693314 0 0 Z " fill="#FAE5DB" transform="translate(68,112)"/>
<path d="M0 0 C3.91402949 1.26941497 5.79072873 2.51167694 8 6 C7.34 6 6.68 6 6 6 C5.67 6.99 5.34 7.98 5 9 C4.16396622 7.68921847 3.3312426 6.37632511 2.5 5.0625 C2.0359375 4.33160156 1.571875 3.60070312 1.09375 2.84765625 C0 1 0 1 0 0 Z " fill="#F7ECE1" transform="translate(108,103)"/>
<path d="M0 0 C0.66 0 1.32 0 2 0 C2.185625 1.2065625 2.185625 1.2065625 2.375 2.4375 C2.58125 3.283125 2.7875 4.12875 3 5 C3.66 5.33 4.32 5.66 5 6 C5 6.99 5 7.98 5 9 C3.68 8.67 2.36 8.34 1 8 C1 7.01 1 6.02 1 5 C0.34 5 -0.32 5 -1 5 C-0.67 3.35 -0.34 1.7 0 0 Z " fill="#ED6514" transform="translate(83,72)"/>
<path d="M0 0 C0.33 0.66 0.66 1.32 1 2 C1.99 2 2.98 2 4 2 C4.33 1.34 4.66 0.68 5 0 C5.66 1.65 6.32 3.3 7 5 C6.01 5 5.02 5 4 5 C3.67 4.67 3.34 4.34 3 4 C2.01 4.495 2.01 4.495 1 5 C0.01 4.67 -0.98 4.34 -2 4 C-1.34 2.68 -0.68 1.36 0 0 Z " fill="#2F371C" transform="translate(133,171)"/>
<path d="M0 0 C0.99 0 1.98 0 3 0 C3 2.31 3 4.62 3 7 C1.35 7 -0.3 7 -2 7 C-1.34 4.69 -0.68 2.38 0 0 Z " fill="#456731" transform="translate(137,132)"/>
<path d="M0 0 C0.99 1.485 0.99 1.485 2 3 C2.66 3 3.32 3 4 3 C4 4.65 4 6.3 4 8 C3.01 8 2.02 8 1 8 C0.67 8.99 0.34 9.98 0 11 C0 7.37 0 3.74 0 0 Z " fill="#F0EEEE" transform="translate(64,109)"/>
<path d="M0 0 C1.98 0.495 1.98 0.495 4 1 C4 3.64 4 6.28 4 9 C1.525 8.01 1.525 8.01 -1 7 C-1 6.34 -1 5.68 -1 5 C0.32 5 1.64 5 3 5 C3 4.01 3 3.02 3 2 C2.01 2 1.02 2 0 2 C0 1.34 0 0.68 0 0 Z " fill="#EE6003" transform="translate(85,87)"/>
<path d="M0 0 C0.99 0.66 1.98 1.32 3 2 C3 3.32 3 4.64 3 6 C1.35 6 -0.3 6 -2 6 C-2.33 5.01 -2.66 4.02 -3 3 C-2.01 2.01 -1.02 1.02 0 0 Z " fill="#395328" transform="translate(65,175)"/>
<path d="M0 0 C0.33 0.99 0.66 1.98 1 3 C1.66 3 2.32 3 3 3 C3.33 4.32 3.66 5.64 4 7 C1.69 6.34 -0.62 5.68 -3 5 C-2.01 3.35 -1.02 1.7 0 0 Z " fill="#EE7224" transform="translate(109,92)"/>
<path d="M0 0 C0 3 0 3 -2 6 C-2.66 6 -3.32 6 -4 6 C-4.33 6.66 -4.66 7.32 -5 8 C-5.33 7.34 -5.66 6.68 -6 6 C-7.32 6 -8.64 6 -10 6 C-10 5.34 -10 4.68 -10 4 C-7.98177083 3.54427083 -5.96354167 3.08854167 -3.9453125 2.6328125 C-1.79280036 2.09525572 -1.79280036 2.09525572 0 0 Z " fill="#EDF1EB" transform="translate(68,183)"/>
<path d="M0 0 C0.721875 0.268125 1.44375 0.53625 2.1875 0.8125 C2.1875 1.8025 2.1875 2.7925 2.1875 3.8125 C0.8675 3.8125 -0.4525 3.8125 -1.8125 3.8125 C-3.81651011 4.12080925 -5.81761766 4.44979412 -7.8125 4.8125 C-3.50480769 -0.23365385 -3.50480769 -0.23365385 0 0 Z " fill="#1F2B09" transform="translate(126.8125,181.1875)"/>
<path d="M0 0 C2.20080053 3.3012008 2.21218749 3.89101158 1.75 7.625 C1.66234375 8.42164063 1.5746875 9.21828125 1.484375 10.0390625 C1.32453125 10.68617188 1.1646875 11.33328125 1 12 C0.01 12.495 0.01 12.495 -1 13 C-1 10.69 -1 8.38 -1 6 C-0.34 6 0.32 6 1 6 C0.67 4.02 0.34 2.04 0 0 Z " fill="#F5D9D7" transform="translate(86,124)"/>
<path d="M0 0 C2.475 0.495 2.475 0.495 5 1 C4.67 2.98 4.34 4.96 4 7 C2.68 6.34 1.36 5.68 0 5 C0 3.35 0 1.7 0 0 Z " fill="#F7FAF9" transform="translate(107,123)"/>
<path d="M0 0 C0.433125 0.9590625 0.433125 0.9590625 0.875 1.9375 C1.82823451 4.15206079 1.82823451 4.15206079 4 5 C3.01 6.98 2.02 8.96 1 11 C0.01 10.67 -0.98 10.34 -2 10 C-1.67 9.34 -1.34 8.68 -1 8 C-0.34 8 0.32 8 1 8 C0.34 5.69 -0.32 3.38 -1 1 C-0.67 0.67 -0.34 0.34 0 0 Z " fill="#DB162F" transform="translate(52,116)"/>
<path d="M0 0 C2.97 0.33 5.94 0.66 9 1 C9 1.66 9 2.32 9 3 C5.23375329 4.25541557 3.62811066 3.37061958 0 2 C0 1.34 0 0.68 0 0 Z " fill="#F16613" transform="translate(98,101)"/>
<path d="M0 0 C1.32 0.33 2.64 0.66 4 1 C1.525 4.465 1.525 4.465 -1 8 C-1.66 7.34 -2.32 6.68 -3 6 C-3 5.01 -3 4.02 -3 3 C-2.01 3 -1.02 3 0 3 C0 2.01 0 1.02 0 0 Z " fill="#F4EFE8" transform="translate(100,48)"/>
<path d="M0 0 C0.721875 0.103125 1.44375 0.20625 2.1875 0.3125 C1.5275 0.9725 0.8675 1.6325 0.1875 2.3125 C-0.4725 2.3125 -1.1325 2.3125 -1.8125 2.3125 C-2.1425 3.6325 -2.4725 4.9525 -2.8125 6.3125 C-4.4625 5.9825 -6.1125 5.6525 -7.8125 5.3125 C-3.50480769 0.38942308 -3.50480769 0.38942308 0 0 Z " fill="#E2E9DD" transform="translate(89.8125,184.6875)"/>
<path d="M0 0 C0.33 0.66 0.66 1.32 1 2 C-0.98 4.64 -2.96 7.28 -5 10 C-5.99 9.34 -6.98 8.68 -8 8 C-5.33333333 5.33333333 -2.66666667 2.66666667 0 0 Z " fill="#D6E2D8" transform="translate(134,167)"/>
<path d="M0 0 C1.98 0.495 1.98 0.495 4 1 C4 2.98 4 4.96 4 7 C3.67 6.34 3.34 5.68 3 5 C2.34 5 1.68 5 1 5 C1 5.66 1 6.32 1 7 C0.34 7 -0.32 7 -1 7 C-1 6.01 -1 5.02 -1 4 C-0.34 3.67 0.32 3.34 1 3 C0.67 2.01 0.34 1.02 0 0 Z " fill="#F32122" transform="translate(124,139)"/>
<path d="M0 0 C0.99 0.33 1.98 0.66 3 1 C3 2.32 3 3.64 3 5 C2.34 5 1.68 5 1 5 C1 5.66 1 6.32 1 7 C0.01 7 -0.98 7 -2 7 C-2 6.34 -2 5.68 -2 5 C-1.34 5 -0.68 5 0 5 C-0.2784375 4.0409375 -0.2784375 4.0409375 -0.5625 3.0625 C-0.7790625 2.0415625 -0.7790625 2.0415625 -1 1 C-0.67 0.67 -0.34 0.34 0 0 Z " fill="#49640F" transform="translate(138,139)"/>
<path d="M0 0 C2.625 0.9375 2.625 0.9375 5 2 C4.34 3.32 3.68 4.64 3 6 C2.34 6 1.68 6 1 6 C-0.625 3.5 -0.625 3.5 -2 1 C-1.34 0.67 -0.68 0.34 0 0 Z " fill="#F9FAF2" transform="translate(121,117)"/>
<path d="M0 0 C2.475 0.99 2.475 0.99 5 2 C5 2.99 5 3.98 5 5 C4.01 5.495 4.01 5.495 3 6 C1.68 5.01 0.36 4.02 -1 3 C-0.67 2.01 -0.34 1.02 0 0 Z " fill="#22551F" transform="translate(128,164)"/>
<path d="M0 0 C2.475 0.495 2.475 0.495 5 1 C5 1.99 5 2.98 5 4 C4.01 4.33 3.02 4.66 2 5 C2.99 5.33 3.98 5.66 5 6 C3.35 6 1.7 6 0 6 C0 4.02 0 2.04 0 0 Z " fill="#B8232B" transform="translate(104,165)"/>
<path d="M0 0 C0.99 0.33 1.98 0.66 3 1 C2.34 3.31 1.68 5.62 1 8 C-1.475 7.01 -1.475 7.01 -4 6 C-2.68 5.67 -1.36 5.34 0 5 C-0.33 4.01 -0.66 3.02 -1 2 C-0.67 1.34 -0.34 0.68 0 0 Z " fill="#F77633" transform="translate(106,90)"/>
<path d="M0 0 C0.33 1.32 0.66 2.64 1 4 C-2 6 -2 6 -4.1875 5.625 C-4.785625 5.41875 -5.38375 5.2125 -6 5 C-4.02 3.35 -2.04 1.7 0 0 Z " fill="#D9871D" transform="translate(93,60)"/>
<path d="M0 0 C1.65 0.33 3.3 0.66 5 1 C4.34 2.32 3.68 3.64 3 5 C0.03 4.505 0.03 4.505 -3 4 C-2.34 3.67 -1.68 3.34 -1 3 C-0.67 2.01 -0.34 1.02 0 0 Z " fill="#DB8F06" transform="translate(102,53)"/>
<path d="M0 0 C2.475 0.99 2.475 0.99 5 2 C4.34 3.65 3.68 5.3 3 7 C0 3.375 0 3.375 0 0 Z " fill="#212D0F" transform="translate(137,168)"/>
<path d="M0 0 C0.66 0.33 1.32 0.66 2 1 C2 2.98 2 4.96 2 7 C0.68 7 -0.64 7 -2 7 C-2 6.01 -2 5.02 -2 4 C-1.34 4 -0.68 4 0 4 C0 2.68 0 1.36 0 0 Z " fill="#DF1C2F" transform="translate(119,157)"/>
<path d="M0 0 C0.33 0 0.66 0 1 0 C1 1.65 1 3.3 1 5 C1.99 5 2.98 5 4 5 C3.34 6.32 2.68 7.64 2 9 C1.01 8.67 0.02 8.34 -1 8 C-0.67 5.36 -0.34 2.72 0 0 Z " fill="#426B2C" transform="translate(134,147)"/>
<path d="M0 0 C-0.99 0 -1.98 0 -3 0 C-2.67 1.32 -2.34 2.64 -2 4 C-3.65 3.67 -5.3 3.34 -7 3 C-7.33 2.01 -7.66 1.02 -8 0 C-4.94736336 -0.98120464 -3.05263664 -0.98120464 0 0 Z " fill="#457041" transform="translate(79,153)"/>
<path d="M0 0 C3.125 0.375 3.125 0.375 6 1 C6 1.66 6 2.32 6 3 C4.02 3.66 2.04 4.32 0 5 C0 4.34 0 3.68 0 3 C-0.66 2.67 -1.32 2.34 -2 2 C-1.34 1.34 -0.68 0.68 0 0 Z " fill="#DF1C2E" transform="translate(99,144)"/>
<path d="M0 0 C1.32 0 2.64 0 4 0 C3.67 1.32 3.34 2.64 3 4 C2.34 3.67 1.68 3.34 1 3 C1.33 4.65 1.66 6.3 2 8 C1.34 8 0.68 8 0 8 C0 5.36 0 2.72 0 0 Z " fill="#E70621" transform="translate(100,136)"/>
<path d="M0 0 C0.33 0.99 0.66 1.98 1 3 C0.34 3 -0.32 3 -1 3 C-1 3.66 -1 4.32 -1 5 C-0.01 5 0.98 5 2 5 C2 5.66 2 6.32 2 7 C0.68 7 -0.64 7 -2 7 C-2.33 5.35 -2.66 3.7 -3 2 C-2.01 1.34 -1.02 0.68 0 0 Z " fill="#E80711" transform="translate(55,129)"/>
<path d="M0 0 C1.65 0.33 3.3 0.66 5 1 C4.01 1.495 4.01 1.495 3 2 C3 3.65 3 5.3 3 7 C1.68 5.35 0.36 3.7 -1 2 C-0.67 1.34 -0.34 0.68 0 0 Z " fill="#E86533" transform="translate(128,117)"/>
<path d="M0 0 C2.49361571 1.20381448 4.68143083 2.45428722 7 4 C6.67 4.66 6.34 5.32 6 6 C3.0280615 4.87548273 0.66559313 3.77706209 -2 2 C-1.34 1.34 -0.68 0.68 0 0 Z " fill="#EA7014" transform="translate(116,99)"/>
<path d="M0 0 C1.65 0.33 3.3 0.66 5 1 C5.33 1.99 5.66 2.98 6 4 C3.69 4 1.38 4 -1 4 C-0.67 2.68 -0.34 1.36 0 0 Z " fill="#F27433" transform="translate(108,100)"/>
<path d="M0 0 C0.66 0.33 1.32 0.66 2 1 C2 2.98 2 4.96 2 7 C1.01 7.495 1.01 7.495 0 8 C-0.33 7.34 -0.66 6.68 -1 6 C-1.99 5.34 -2.98 4.68 -4 4 C-2.68 4 -1.36 4 0 4 C-0.33 3.01 -0.66 2.02 -1 1 C-0.67 0.67 -0.34 0.34 0 0 Z " fill="#F6E3E3" transform="translate(62,97)"/>
<path d="M0 0 C2.97 0.33 5.94 0.66 9 1 C9 1.99 9 2.98 9 4 C6.03 3.01 3.06 2.02 0 1 C0 0.67 0 0.34 0 0 Z " fill="#F3722B" transform="translate(95,88)"/>
<path d="M0 0 C0.66 0.99 1.32 1.98 2 3 C1.67 3.99 1.34 4.98 1 6 C0.67 5.34 0.34 4.68 0 4 C-1.65 4 -3.3 4 -5 4 C-3 1 -3 1 0 0 Z " fill="#ED7D28" transform="translate(105,82)"/>
<path d="M0 0 C2.64 0.33 5.28 0.66 8 1 C8 2.32 8 3.64 8 5 C7.01 5 6.02 5 5 5 C5 4.34 5 3.68 5 3 C4.34 3 3.68 3 3 3 C3 2.34 3 1.68 3 1 C2.01 0.67 1.02 0.34 0 0 Z " fill="#E97E14" transform="translate(96,73)"/>
<path d="M0 0 C-0.33 1.32 -0.66 2.64 -1 4 C-2.65 3.67 -4.3 3.34 -6 3 C-6 2.01 -6 1.02 -6 0 C-3 -1 -3 -1 0 0 Z " fill="#2A3817" transform="translate(112,190)"/>
<path d="M0 0 C0.99 0 1.98 0 3 0 C1.63016497 3.16115776 1.0109362 3.9927092 -2 6 C-2 2 -2 2 0 0 Z " fill="#EEF2ED" transform="translate(125,176)"/>
<path d="M0 0 C0.6875 1.8125 0.6875 1.8125 1 4 C-0.4375 5.75 -0.4375 5.75 -2 7 C-2 6.01 -2 5.02 -2 4 C-3.32 3.67 -4.64 3.34 -6 3 C-6 2.34 -6 1.68 -6 1 C-3.92446352 0.4465236 -2.15634036 0 0 0 Z " fill="#24300F" transform="translate(137,174)"/>
<path d="M0 0 C0 0.66 0 1.32 0 2 C-1.32 2.33 -2.64 2.66 -4 3 C-4 2.34 -4 1.68 -4 1 C-5.98 1 -7.96 1 -10 1 C-6.42181037 -1.33958553 -4.07775191 -0.9267618 0 0 Z " fill="#42693A" transform="translate(88,166)"/>
<path d="M0 0 C0.66 0.33 1.32 0.66 2 1 C0.71034824 2.37562854 -0.62689293 3.70766393 -2 5 C-2.66 5 -3.32 5 -4 5 C-4.33 5.66 -4.66 6.32 -5 7 C-5.99 6.67 -6.98 6.34 -8 6 C-5.36 4.02 -2.72 2.04 0 0 Z " fill="#DEE8DE" transform="translate(72,160)"/>
<path d="M0 0 C4.455 0.99 4.455 0.99 9 2 C8.67 2.66 8.34 3.32 8 4 C5.69 4 3.38 4 1 4 C0.67 2.68 0.34 1.36 0 0 Z " fill="#D5051F" transform="translate(48,152)"/>
<path d="M0 0 C0 0.99 0 1.98 0 3 C-0.99 3.33 -1.98 3.66 -3 4 C-3 4.66 -3 5.32 -3 6 C-2.34 6.33 -1.68 6.66 -1 7 C-2.65 7 -4.3 7 -6 7 C-4.60667426 3.63279613 -3.0210714 2.0140476 0 0 Z " fill="#E2031A" transform="translate(100,145)"/>
<path d="M0 0 C1.32 0.33 2.64 0.66 4 1 C4.33 2.98 4.66 4.96 5 7 C2 6 2 6 0 3 C0 2.01 0 1.02 0 0 Z " fill="#E93D22" transform="translate(124,131)"/>
<path d="M0 0 C1.65 0 3.3 0 5 0 C4.67 2.64 4.34 5.28 4 8 C1.53721199 5.53721199 1.00228745 3.29323018 0 0 Z " fill="#EB472C" transform="translate(112,124)"/>
<path d="M0 0 C0.66 0 1.32 0 2 0 C2.33 1.32 2.66 2.64 3 4 C3.66 4 4.32 4 5 4 C5.33 4.99 5.66 5.98 6 7 C4.02 6.34 2.04 5.68 0 5 C0 3.35 0 1.7 0 0 Z " fill="#F32B1B" transform="translate(88,112)"/>
<path d="M0 0 C2.64 0.66 5.28 1.32 8 2 C8 2.66 8 3.32 8 4 C5.36 3.67 2.72 3.34 0 3 C0 2.01 0 1.02 0 0 Z " fill="#305C23" transform="translate(96,168)"/>
<path d="M0 0 C0.33 0.99 0.66 1.98 1 3 C2.98 2.34 4.96 1.68 7 1 C5.515 3.475 5.515 3.475 4 6 C3.01 5.67 2.02 5.34 1 5 C0.67 3.35 0.34 1.7 0 0 Z " fill="#C80C21" transform="translate(47,156)"/>
<path d="M0 0 C0 1.98 0 3.96 0 6 C-1.32 5.34 -2.64 4.68 -4 4 C-4 3.01 -4 2.02 -4 1 C-1 0 -1 0 0 0 Z " fill="#2F5E28" transform="translate(138,154)"/>
<path d="M0 0 C0.99 0 1.98 0 3 0 C2.34 1.65 1.68 3.3 1 5 C0.01 5 -0.98 5 -2 5 C-2 2 -2 2 0 0 Z " fill="#F4FDFB" transform="translate(94,141)"/>
<path d="M0 0 C2.97 0.495 2.97 0.495 6 1 C6 1.99 6 2.98 6 4 C4.35 4.33 2.7 4.66 1 5 C0.67 3.35 0.34 1.7 0 0 Z " fill="#F30E2E" transform="translate(82,138)"/>
<path d="M0 0 C0.99 0 1.98 0 3 0 C2.4140625 6.15234375 2.4140625 6.15234375 2 8 C1.01 8.495 1.01 8.495 0 9 C0 6.03 0 3.06 0 0 Z " fill="#E94922" transform="translate(76,128)"/>
<path d="M0 0 C1.66666667 0 3.33333333 0 5 0 C5 1.65 5 3.3 5 5 C3.68 4.67 2.36 4.34 1 4 C0.67 2.68 0.34 1.36 0 0 Z " fill="#F3211D" transform="translate(77,98)"/>
<path d="M0 0 C0.33 0 0.66 0 1 0 C1 1.98 1 3.96 1 6 C0.34 6 -0.32 6 -1 6 C-1 7.32 -1 8.64 -1 10 C-1.66 10 -2.32 10 -3 10 C-2.49287967 6.28111761 -1.88391785 3.26545761 0 0 Z " fill="#DC4F28" transform="translate(78,76)"/>
<path d="M0 0 C1.98 0.495 1.98 0.495 4 1 C4 2.32 4 3.64 4 5 C2.35 5 0.7 5 -1 5 C-1 2 -1 2 0 0 Z " fill="#1D2D06" transform="translate(84,193)"/>
<path d="M0 0 C0.99 0.33 1.98 0.66 3 1 C1.515 3.475 1.515 3.475 0 6 C-0.99 5.34 -1.98 4.68 -3 4 C-2.01 2.68 -1.02 1.36 0 0 Z " fill="#DE0D1D" transform="translate(112,156)"/>
<path d="M0 0 C2.125 0.9375 2.125 0.9375 4 2 C3.67 2.66 3.34 3.32 3 4 C1.02 4 -0.96 4 -3 4 C-2.67 3.01 -2.34 2.02 -2 1 C-1.34 0.67 -0.68 0.34 0 0 Z " fill="#F2FBFA" transform="translate(106,154)"/>
<path d="M0 0 C0.99 0.33 1.98 0.66 3 1 C3 2.32 3 3.64 3 5 C2.34 5 1.68 5 1 5 C0.67 6.32 0.34 7.64 0 9 C0 6.03 0 3.06 0 0 Z " fill="#3B6520" transform="translate(135,139)"/>
<path d="M0 0 C0.33 1.32 0.66 2.64 1 4 C0.34 4 -0.32 4 -1 4 C-0.67 5.32 -0.34 6.64 0 8 C-0.66 8 -1.32 8 -2 8 C-2 6.02 -2 4.04 -2 2 C-2.66 1.67 -3.32 1.34 -4 1 C-2 0 -2 0 0 0 Z " fill="#EF0D1C" transform="translate(106,134)"/>
<path d="M0 0 C1 3 1 3 -0.25 5.6875 C-0.8275 6.450625 -1.405 7.21375 -2 8 C-2.99 8 -3.98 8 -5 8 C-3.62845496 5.04590299 -2.01136276 2.55991624 0 0 Z " fill="#DA7026" transform="translate(84,68)"/>
<path d="M0 0 C0.33 0 0.66 0 1 0 C1 1.65 1 3.3 1 5 C1.66 5 2.32 5 3 5 C3 5.66 3 6.32 3 7 C1.35 7 -0.3 7 -2 7 C-2 6.01 -2 5.02 -2 4 C-1.34 4 -0.68 4 0 4 C0 2.68 0 1.36 0 0 Z " fill="#D29503" transform="translate(106,43)"/>
</svg>
